<?xml version="1.0" encoding="UTF-8"?>
<svg xmlns="http://www.w3.org/2000/svg" width="50" height="50" viewBox="0 0 50 50" fill="none">
  <path id="icon_instagram" d="M25 0C38.8064 0 50 11.1927 50 25C50 38.8073 38.8064 50 25 50C11.1927 50 0 38.8073 0 25C0 11.1927 11.1927 0 25 0ZM25 30.2475C22.1024 30.2475 19.7533 27.8982 19.7533 25C19.7533 22.1024 22.1025 19.7533 25 19.7533C27.8976 19.7533 30.2467 22.1025 30.2467 25C30.2467 27.8982 27.8975 30.2475 25 30.2475ZM35.291 16.5974C35.291 17.6412 34.4455 18.4867 33.4026 18.4867C32.3588 18.4867 31.5133 17.6412 31.5133 16.5974C31.5133 15.5545 32.3588 14.709 33.4026 14.709C34.4455 14.709 35.291 15.5545 35.291 16.5974ZM25 9.25998C20.7244 9.25998 20.1886 9.27813 18.5104 9.35474C16.8345 9.43061 15.6903 9.69698 14.6891 10.0857C13.6541 10.4878 12.7762 11.026 11.9015 11.9015C11.026 12.777 10.4878 13.6541 10.0857 14.6899C9.69698 15.6903 9.43061 16.8345 9.35399 18.5104C9.27738 20.1895 9.25923 20.7251 9.25923 25C9.25923 29.2748 9.27738 29.8114 9.35399 31.4904C9.43061 33.1655 9.69694 34.3097 10.0857 35.3108C10.4878 36.3459 11.026 37.2238 11.9015 38.0985C12.7762 38.974 13.6541 39.5121 14.6891 39.9143C15.6902 40.3037 16.8345 40.5693 18.5104 40.646C20.1886 40.7226 20.7244 40.7407 25 40.7407C29.2748 40.7407 29.8105 40.7226 31.4896 40.646C33.1648 40.5693 34.3097 40.3037 35.3109 39.9143C36.3459 39.5121 37.2238 38.9739 38.0985 38.0985C38.9733 37.2237 39.5122 36.3459 39.9143 35.3108C40.303 34.3097 40.5694 33.1655 40.646 31.4904C40.7226 29.8114 40.7408 29.2748 40.7408 25C40.7408 20.7252 40.7226 20.1895 40.646 18.5104C40.5694 16.8345 40.3031 15.6903 39.9143 14.6899C39.5122 13.6541 38.9732 12.7769 38.0985 11.9015C37.2238 11.026 36.3459 10.4878 35.3109 10.0857C34.3098 9.69698 33.1648 9.43061 31.4896 9.35474C29.8105 9.27813 29.2749 9.25998 25 9.25998ZM25 12.0959C29.2029 12.0959 29.7006 12.1118 31.3608 12.1876C32.8954 12.2579 33.7282 12.5139 34.2828 12.7296C35.0176 13.0148 35.5423 13.3562 36.093 13.907C36.6439 14.4577 36.9852 14.9824 37.2704 15.7164C37.4861 16.2711 37.7421 17.1046 37.8124 18.6392C37.8882 20.2994 37.9041 20.7971 37.9041 25C37.9041 29.2029 37.8882 29.7006 37.8124 31.3608C37.7421 32.8954 37.4861 33.7289 37.2704 34.2836C36.9852 35.0185 36.6438 35.5431 36.093 36.093C35.5423 36.6439 35.0176 36.9852 34.2828 37.2711C33.7282 37.4861 32.8954 37.743 31.3608 37.8124C29.7006 37.8882 29.2029 37.9049 25 37.9049C20.7963 37.9049 20.2985 37.8883 18.6392 37.8124C17.1046 37.743 16.2711 37.4861 15.7164 37.2711C14.9815 36.9852 14.4577 36.6438 13.907 36.093C13.3561 35.543 13.0148 35.0185 12.7296 34.2836C12.5139 33.7289 12.2579 32.8954 12.1867 31.3608C12.1118 29.7006 12.0959 29.2029 12.0959 25C12.0959 20.7971 12.1118 20.2994 12.1867 18.6392C12.2579 17.1046 12.5139 16.2711 12.7296 15.7164C13.0148 14.9824 13.3554 14.4577 13.907 13.907C14.4577 13.3561 14.9815 13.0148 15.7164 12.7296C16.2711 12.5139 17.1046 12.2579 18.6392 12.1876C20.2994 12.1118 20.7971 12.0959 25 12.0959ZM25 16.9175C20.5356 16.9175 16.9175 20.5363 16.9175 25C16.9175 29.4644 20.5356 33.0833 25 33.0833C29.4636 33.0833 33.0825 29.4644 33.0825 25C33.0825 20.5363 29.4636 16.9175 25 16.9175Z" fill="#9D832B"></path>
</svg>
