<?xml version="1.0" encoding="UTF-8"?>
<svg xmlns="http://www.w3.org/2000/svg" width="39" height="40" viewBox="0 0 39 40" fill="none">
  <path fill-rule="evenodd" clip-rule="evenodd" d="M0.988069 17.4182L14.2988 4.61081L19.0909 0L23.883 4.61081L37.1937 17.4182C38.5112 18.6859 38.5112 20.761 37.1937 22.0286L37.1932 22.0291C36.1846 22.9996 34.6839 23.2269 33.4446 22.7113V40H26.8631V23.7042H11.9012V40H5.3197V22.3998C4.00017 23.2814 2.16174 23.158 0.988595 22.0292L0.988069 22.0287C-0.329356 20.7611 -0.329356 18.686 0.988069 17.4183V17.4182ZM13.4061 25.5401H25.2457V39.9999H13.4061V25.5401ZM26.3337 16.1905L19.0909 9.2215L11.8481 16.1905H26.3336H26.3337Z" fill="white"></path>
</svg>
