<?xml version="1.0" encoding="UTF-8"?>
<svg xmlns="http://www.w3.org/2000/svg" width="39" height="50" viewBox="0 0 39 50" fill="none">
  <path fill-rule="evenodd" clip-rule="evenodd" d="M21.5832 12.7525C26.7965 13.8924 30.7043 18.5961 30.7043 24.2268C30.7043 26.3602 30.1432 28.3612 29.1629 30.0852C26.1165 28.6406 22.7183 27.8318 19.1339 27.8318C15.549 27.8318 12.1507 28.6406 9.10377 30.0852C8.12406 28.3612 7.56348 26.3602 7.56348 24.2268C7.56348 18.5961 11.4707 13.8924 16.6841 12.7525C14.2962 11.769 12.6116 9.39334 12.6116 6.61769C12.6116 2.9627 15.5316 0 19.1339 0C22.7362 0 25.6557 2.9627 25.6557 6.61769C25.6557 9.39276 23.971 11.7684 21.5832 12.7525ZM26.1322 38.8968L8.86377 50V38.8968H5.51652C2.47768 38.8968 0 36.3829 0 33.3002V13.3342C0 10.2515 2.47768 7.73701 5.51652 7.73701H10.5426C10.6528 8.60929 10.8904 9.44922 11.2383 10.2321H5.51652C3.83478 10.2321 2.45855 11.6279 2.45855 13.3342V33.3002C2.45855 35.0065 3.83478 36.4023 5.51652 36.4023H11.3223V45.4645L25.4185 36.4023H32.8168C34.498 36.4023 35.8742 35.0059 35.8742 33.3002V13.3342C35.8742 11.6279 34.4986 10.2321 32.8168 10.2321H27.0278C27.3762 9.44863 27.6139 8.60929 27.7241 7.73701H32.8168C35.8551 7.73701 38.3333 10.2515 38.3333 13.3342V33.3002C38.3333 36.3835 35.8551 38.8968 32.8168 38.8968H26.1316H26.1322Z" fill="white"></path>
</svg>
