<?xml version="1.0" encoding="UTF-8"?>
<svg xmlns="http://www.w3.org/2000/svg" width="35" height="35" viewBox="0 0 35 35" fill="none">
  <path d="M17.5 0C27.1645 0 35 7.83487 35 17.5C35 27.1651 27.1645 35 17.5 35C7.83487 35 0 27.1651 0 17.5C0 7.83487 7.83487 0 17.5 0ZM17.5 21.1732C15.4717 21.1732 13.8273 19.5288 13.8273 17.5C13.8273 15.4717 15.4717 13.8273 17.5 13.8273C19.5283 13.8273 21.1727 15.4717 21.1727 17.5C21.1727 19.5288 19.5283 21.1732 17.5 21.1732ZM24.7037 11.6182C24.7037 12.3488 24.1119 12.9407 23.3818 12.9407C22.6512 12.9407 22.0593 12.3488 22.0593 11.6182C22.0593 10.8881 22.6512 10.2963 23.3818 10.2963C24.1119 10.2963 24.7037 10.8881 24.7037 11.6182ZM17.5 6.48198C14.5071 6.48198 14.1321 6.49469 12.9573 6.54832C11.7841 6.60142 10.9832 6.78789 10.2824 7.05999C9.55784 7.34149 8.94332 7.71821 8.33102 8.33102C7.71817 8.94388 7.34149 9.55784 7.05999 10.2829C6.78789 10.9832 6.60142 11.7841 6.5478 12.9573C6.49417 14.1326 6.48146 14.5076 6.48146 17.5C6.48146 20.4924 6.49417 20.8679 6.5478 22.0433C6.60142 23.2158 6.78785 24.0168 7.05999 24.7176C7.34149 25.4421 7.71821 26.0566 8.33102 26.6689C8.94336 27.2818 9.55784 27.6585 10.2824 27.94C10.9832 28.2126 11.7841 28.3985 12.9573 28.4522C14.1321 28.5058 14.5071 28.5185 17.5 28.5185C20.4924 28.5185 20.8673 28.5058 22.0427 28.4522C23.2154 28.3985 24.0168 28.2126 24.7176 27.94C25.4422 27.6585 26.0567 27.2818 26.669 26.6689C27.2813 26.0566 27.6585 25.4421 27.94 24.7176C28.2121 24.0168 28.3986 23.2158 28.4522 22.0433C28.5058 20.8679 28.5185 20.4924 28.5185 17.5C28.5185 14.5076 28.5058 14.1327 28.4522 12.9573C28.3986 11.7841 28.2121 10.9832 27.94 10.2829C27.6585 9.55784 27.2813 8.94384 26.669 8.33102C26.0566 7.71817 25.4422 7.34149 24.7176 7.05999C24.0168 6.78789 23.2154 6.60142 22.0427 6.54832C20.8674 6.49469 20.4924 6.48198 17.5 6.48198ZM17.5 8.46716C20.442 8.46716 20.7904 8.47823 21.9526 8.53134C23.0267 8.58053 23.6097 8.75974 23.998 8.91073C24.5123 9.11038 24.8796 9.34933 25.2651 9.7349C25.6507 10.1204 25.8896 10.4877 26.0893 11.0015C26.2403 11.3898 26.4195 11.9733 26.4687 13.0474C26.5218 14.2096 26.5328 14.558 26.5328 17.5C26.5328 20.442 26.5218 20.7904 26.4687 21.9526C26.4195 23.0267 26.2403 23.6102 26.0893 23.9985C25.8896 24.513 25.6507 24.8802 25.2651 25.2651C24.8796 25.6507 24.5123 25.8896 23.998 26.0898C23.6097 26.2403 23.0267 26.4201 21.9526 26.4687C20.7904 26.5218 20.442 26.5335 17.5 26.5335C14.5574 26.5335 14.2089 26.5218 13.0474 26.4687C11.9733 26.4201 11.3898 26.2403 11.0015 26.0898C10.487 25.8896 10.1204 25.6507 9.7349 25.2651C9.3493 24.8801 9.11038 24.513 8.91073 23.9985C8.75974 23.6102 8.58052 23.0267 8.53071 21.9526C8.47823 20.7904 8.46716 20.442 8.46716 17.5C8.46716 14.558 8.47823 14.2096 8.53071 13.0474C8.58052 11.9733 8.75974 11.3898 8.91073 11.0015C9.11038 10.4877 9.34881 10.1204 9.7349 9.7349C10.1204 9.3493 10.487 9.11038 11.0015 8.91073C11.3898 8.75974 11.9733 8.58053 13.0474 8.53134C14.2096 8.47823 14.558 8.46716 17.5 8.46716ZM17.5 11.8422C14.3749 11.8422 11.8422 14.3754 11.8422 17.5C11.8422 20.6251 14.3749 23.1583 17.5 23.1583C20.6246 23.1583 23.1578 20.6251 23.1578 17.5C23.1578 14.3754 20.6246 11.8422 17.5 11.8422Z" fill="white"></path>
</svg>
