<?xml version="1.0" encoding="UTF-8"?>
<svg xmlns="http://www.w3.org/2000/svg" width="20" height="20" viewBox="0 0 20 20" fill="none">
  <g id="icon_instagram">
    <path id="icon_instagram_2" d="M10 0C15.5226 0 20 4.47707 20 10C20 15.5229 15.5226 20 10 20C4.47707 20 0 15.5229 0 10C0 4.47707 4.47707 0 10 0ZM10 12.099C8.84098 12.099 7.90131 11.1593 7.90131 10C7.90131 8.84098 8.841 7.90131 10 7.90131C11.159 7.90131 12.0987 8.841 12.0987 10C12.0987 11.1593 11.159 12.099 10 12.099ZM14.1164 6.63895C14.1164 7.05647 13.7782 7.39467 13.361 7.39467C12.9435 7.39467 12.6053 7.05647 12.6053 6.63895C12.6053 6.22179 12.9435 5.88359 13.361 5.88359C13.7782 5.88359 14.1164 6.22179 14.1164 6.63895ZM10 3.70399C8.28977 3.70399 8.07546 3.71125 7.40417 3.7419C6.73378 3.77224 6.27611 3.87879 5.87565 4.03428C5.46162 4.19514 5.11047 4.4104 4.76059 4.76059C4.41038 5.11079 4.19514 5.46162 4.03428 5.87595C3.87879 6.27611 3.77224 6.73378 3.7416 7.40417C3.71095 8.0758 3.70369 8.29005 3.70369 10C3.70369 11.7099 3.71095 11.9245 3.7416 12.5962C3.77224 13.2662 3.87877 13.7239 4.03428 14.1243C4.19514 14.5384 4.4104 14.8895 4.76059 15.2394C5.11049 15.5896 5.46162 15.8048 5.87565 15.9657C6.2761 16.1215 6.73378 16.2277 7.40417 16.2584C8.07546 16.289 8.28975 16.2963 10 16.2963C11.7099 16.2963 11.9242 16.289 12.5958 16.2584C13.2659 16.2277 13.7239 16.1215 14.1243 15.9657C14.5384 15.8048 14.8895 15.5896 15.2394 15.2394C15.5893 14.8895 15.8049 14.5384 15.9657 14.1243C16.1212 13.7239 16.2278 13.2662 16.2584 12.5962C16.289 11.9245 16.2963 11.7099 16.2963 10C16.2963 8.29007 16.289 8.07582 16.2584 7.40417C16.2278 6.73378 16.1212 6.27611 15.9657 5.87595C15.8049 5.46162 15.5893 5.11077 15.2394 4.76059C14.8895 4.41038 14.5384 4.19514 14.1243 4.03428C13.7239 3.87879 13.2659 3.77224 12.5958 3.7419C11.9242 3.71125 11.7099 3.70399 10 3.70399ZM10 4.83838C11.6812 4.83838 11.8803 4.8447 12.5443 4.87505C13.1581 4.90316 13.4913 5.00556 13.7131 5.09184C14.007 5.20593 14.2169 5.34248 14.4372 5.5628C14.6575 5.78308 14.7941 5.99295 14.9082 6.28657C14.9944 6.50844 15.0968 6.84186 15.1249 7.45568C15.1553 8.11975 15.1616 8.31883 15.1616 10C15.1616 11.6812 15.1553 11.8803 15.1249 12.5443C15.0968 13.1581 14.9944 13.4916 14.9082 13.7134C14.7941 14.0074 14.6575 14.2172 14.4372 14.4372C14.2169 14.6575 14.007 14.7941 13.7131 14.9085C13.4913 14.9944 13.1581 15.0972 12.5443 15.1249C11.8803 15.1553 11.6812 15.162 10 15.162C8.31853 15.162 8.11939 15.1553 7.45568 15.1249C6.84186 15.0972 6.50844 14.9944 6.28657 14.9085C5.9926 14.7941 5.78306 14.6575 5.5628 14.4372C5.34246 14.2172 5.20593 14.0074 5.09184 13.7134C5.00556 13.4916 4.90316 13.1581 4.87469 12.5443C4.8447 11.8803 4.83838 11.6812 4.83838 10C4.83838 8.31883 4.8447 8.11975 4.87469 7.45568C4.90316 6.84186 5.00556 6.50844 5.09184 6.28657C5.20593 5.99295 5.34218 5.78306 5.5628 5.5628C5.78308 5.34246 5.9926 5.20593 6.28657 5.09184C6.50844 5.00556 6.84186 4.90316 7.45568 4.87505C8.11975 4.8447 8.31883 4.83838 10 4.83838ZM10 6.76698C8.21424 6.76698 6.76698 8.21454 6.76698 10C6.76698 11.7858 8.21424 13.2333 10 13.2333C11.7855 13.2333 13.233 11.7858 13.233 10C13.233 8.21454 11.7855 6.76698 10 6.76698Z" fill="white"></path>
  </g>
</svg>
