<?xml version="1.0" encoding="UTF-8"?>
<svg xmlns="http://www.w3.org/2000/svg" width="40" height="31" viewBox="0 0 40 31" fill="none">
  <path fill-rule="evenodd" clip-rule="evenodd" d="M11.9627 5.05474H13.3088C13.5556 5.05474 13.7573 5.25707 13.7573 5.50461V6.60404C14.9771 6.72627 16.1388 7.04557 17.2105 7.53011L17.7575 6.57968C17.8809 6.36528 18.1566 6.29133 18.3703 6.41509L19.5364 7.09011C19.7501 7.21388 19.8239 7.49039 19.7005 7.70479L19.1521 8.65719C20.1238 9.36073 20.9776 10.217 21.6791 11.1916L22.6287 10.6416C22.8425 10.5179 23.1182 10.5921 23.2416 10.8064L23.9146 11.9757C24.038 12.1901 23.9641 12.4666 23.7505 12.5903L22.8027 13.1392C23.2858 14.2136 23.6044 15.3791 23.7262 16.6023H24.8222C25.069 16.6023 25.271 16.8046 25.271 17.0524V18.4028C25.271 18.6501 25.0692 18.8527 24.8222 18.8527H23.7262C23.6044 20.0759 23.286 21.2412 22.8027 22.316L23.7505 22.8646C23.9641 22.9884 24.038 23.2649 23.9146 23.4793L23.2416 24.6485C23.1182 24.8627 22.8425 24.9371 22.6287 24.8133L21.6791 24.2634C20.9776 25.2379 20.1238 26.0942 19.1521 26.7976L19.7005 27.7502C19.8239 27.9646 19.7501 28.2411 19.5364 28.3648L18.3703 29.0399C18.1566 29.1636 17.8809 29.0895 17.7575 28.8751L17.2105 27.9246C16.139 28.4092 14.9771 28.7282 13.7573 28.8505V29.9501C13.7573 30.1977 13.5556 30.4 13.3088 30.4H11.9627C11.7159 30.4 11.5137 30.1977 11.5137 29.9501V28.8505C10.2941 28.7282 9.13244 28.409 8.06074 27.9246L7.51351 28.8751C7.39011 29.0895 7.11441 29.1634 6.90064 29.0399L5.73485 28.3648C5.5213 28.2411 5.44713 27.9646 5.57075 27.7502L6.11885 26.7976C5.14715 26.0942 4.29337 25.2377 3.59211 24.2634L2.64228 24.8131C2.42851 24.9371 2.15281 24.8627 2.02941 24.6485L1.35637 23.4793C1.23296 23.2649 1.3067 22.9884 1.52069 22.8646L2.46811 22.316C1.98499 21.2412 1.66685 20.0761 1.54498 18.8527H0.448548C0.201737 18.8527 0 18.6499 0 18.4028V17.0524C0 16.805 0.201737 16.6023 0.448548 16.6023H1.54498C1.66685 15.3791 1.98521 14.214 2.46811 13.1392L1.52069 12.5903C1.3067 12.4666 1.23296 12.1901 1.35637 11.9757L2.02941 10.8064C2.15281 10.5923 2.42851 10.5179 2.64228 10.6416L3.59211 11.1916C4.29337 10.217 5.14758 9.36073 6.11885 8.65719L5.57075 7.70479C5.44713 7.49039 5.5213 7.21388 5.73485 7.09011L6.90064 6.41509C7.11463 6.29133 7.39011 6.36528 7.51351 6.57968L8.06074 7.53011C9.13244 7.04557 10.2941 6.72627 11.5137 6.60404V5.50461C11.5137 5.25707 11.7159 5.05474 11.9627 5.05474ZM29.334 9.00589C30.265 9.00589 31.0201 9.76298 31.0201 10.6969C31.0201 11.6307 30.265 12.3882 29.334 12.3882C28.4025 12.3882 27.6476 11.6309 27.6476 10.6969C27.6476 9.76298 28.4025 9.00589 29.334 9.00589ZM28.7657 0H29.902C30.1105 0 30.2807 0.170949 30.2807 0.380082V1.3079C31.3102 1.41104 32.2909 1.68074 33.1952 2.08957L33.6571 1.2875C33.7615 1.10667 33.994 1.04413 34.1746 1.14859L35.1587 1.71849C35.339 1.82295 35.4014 2.05622 35.2975 2.23726L34.8347 3.04154C35.6548 3.63514 36.3755 4.35822 36.9678 5.18049L37.7693 4.71657C37.9496 4.61212 38.1824 4.67444 38.2865 4.85527L38.8548 5.84234C38.9589 6.02338 38.8966 6.25687 38.7163 6.36133L37.9165 6.82458C38.3242 7.73156 38.5929 8.71534 38.6959 9.74762H39.621C39.8296 9.74762 40 9.91857 40 10.1275V11.2671C40 11.4762 39.8296 11.6472 39.621 11.6472H38.6959C38.5931 12.6796 38.3242 13.6632 37.9165 14.5704L38.7163 15.0337C38.8966 15.1381 38.9589 15.3716 38.8548 15.5524L38.2865 16.5395C38.1824 16.7203 37.9498 16.7831 37.7693 16.6786L36.9678 16.2145C36.3757 17.037 35.6548 17.7601 34.8347 18.3539L35.2975 19.1579C35.4016 19.3388 35.339 19.5723 35.1587 19.6767L34.1746 20.2466C33.994 20.3511 33.7615 20.2888 33.6571 20.1075L33.1952 19.3054C32.2909 19.7142 31.3102 19.9837 30.2807 20.0869V21.0149C30.2807 21.224 30.1105 21.3948 29.902 21.3948H28.7657C28.5574 21.3948 28.3868 21.224 28.3868 21.0149V20.0869C27.3573 19.9837 26.3766 19.7142 25.4723 19.3054L25.0104 20.1075C24.9062 20.2885 24.6734 20.3509 24.4929 20.2466L24.0912 20.0138C24.1323 19.806 24.1676 19.5968 24.1973 19.3868H24.8224C25.3629 19.3868 25.8027 18.9455 25.8027 18.4039V17.0534C25.8027 16.5119 25.3627 16.0701 24.8224 16.0701H24.1973C24.0663 15.1429 23.8247 14.2349 23.4766 13.3659L23.8803 13.1321C24.8104 15.2246 26.902 16.6832 29.334 16.6832C32.6298 16.6832 35.3016 14.0036 35.3016 10.698C35.3016 7.39229 32.6298 4.71263 29.334 4.71263C26.2024 4.71263 23.6346 7.13137 23.386 10.2078C23.0865 10.0142 22.6913 9.99098 22.3631 10.181L21.8207 10.4953C21.3181 9.85427 20.7501 9.26703 20.1271 8.74387C20.2676 8.07565 20.4783 7.43333 20.7514 6.82524L19.9516 6.36199C19.7713 6.25753 19.7088 6.02404 19.8129 5.843L20.3812 4.85592C20.4853 4.6751 20.7181 4.61278 20.8984 4.71723L21.7003 5.18114C22.2922 4.35888 23.0129 3.63602 23.8334 3.04219L23.3707 2.23792C23.2665 2.0571 23.3287 1.8236 23.509 1.71915L24.4931 1.14924C24.6737 1.04479 24.9065 1.10733 25.0106 1.28815L25.4725 2.09023C26.377 1.68118 27.3575 1.41192 28.387 1.30856V0.380741C28.387 0.171608 28.5576 0.000658341 28.7659 0.000658341L28.7657 0ZM12.6357 15.2094C14.0225 15.2094 15.1465 16.3367 15.1465 17.7276C15.1465 19.1184 14.0225 20.246 12.6357 20.246C11.2489 20.246 10.1247 19.1184 10.1247 17.7276C10.1247 16.3367 11.2489 15.2094 12.6357 15.2094ZM12.6357 10.6366C16.5405 10.6366 19.7061 13.8116 19.7061 17.7276C19.7061 21.6441 16.5405 24.819 12.6357 24.819C8.73072 24.819 5.56506 21.6441 5.56506 17.7276C5.56506 13.8116 8.73072 10.6366 12.6357 10.6366Z" fill="white"></path>
</svg>
