<?xml version="1.0" encoding="UTF-8"?>
<svg xmlns="http://www.w3.org/2000/svg" width="20" height="20" viewBox="0 0 20 20" fill="none">
  <rect width="20" height="20" fill="#1E1E1E"></rect>
  <g clip-path="url(#clip0_1_4)">
    <rect width="1920" height="4000" transform="translate(-1540 -3938)" fill="white"></rect>
    <rect width="1920" height="87" transform="matrix(1 0 0 -1 -1540 62)" fill="#826C23"></rect>
    <path d="M20 9.99997C20 15.5229 15.5229 20 10 20C4.47739 20 0 15.5229 0 9.99997C0 4.47709 4.47739 0 10 0C15.5229 0 20 4.47709 20 9.99997ZM12.9741 11.122C12.8155 11.0427 12.0364 10.6596 11.891 10.6065C11.7456 10.5537 11.64 10.5272 11.5341 10.6858C11.4286 10.8445 11.1249 11.2017 11.0322 11.3072C10.94 11.4128 10.8477 11.4264 10.689 11.3468C10.5303 11.2677 10.0199 11.1003 9.4143 10.5604C8.94306 10.1404 8.62508 9.6214 8.53251 9.46271C8.4402 9.30402 8.52272 9.21841 8.60209 9.1394C8.67349 9.0683 8.76072 8.95412 8.83974 8.86191C8.91911 8.76925 8.94565 8.70323 8.99812 8.59737C9.0512 8.49176 9.02466 8.3992 8.98513 8.31988C8.9456 8.24051 8.62863 7.46052 8.49648 7.14315C8.36784 6.83435 8.23726 6.87612 8.13963 6.8713C8.04737 6.86658 7.94181 6.86561 7.8359 6.86561C7.73035 6.86561 7.55872 6.9054 7.41333 7.06378C7.26799 7.22277 6.85866 7.60587 6.85866 8.38585C6.85866 9.16564 7.42657 9.91908 7.50594 10.025C7.58496 10.1309 8.6235 11.7315 10.2133 12.4176C10.5917 12.581 10.8868 12.6784 11.1173 12.7514C11.4969 12.8721 11.8424 12.855 12.1154 12.8143C12.4201 12.7688 13.0532 12.4309 13.1853 12.0608C13.3177 11.6906 13.3177 11.3733 13.278 11.3072C13.2381 11.2412 13.1326 11.2017 12.9742 11.122L12.9741 11.122ZM10.0818 15.0696H10.0796C9.13367 15.0693 8.20565 14.8155 7.39618 14.3351L7.20344 14.2207L5.2081 14.7441L5.74064 12.799L5.6152 12.5996C5.08768 11.7605 4.80857 10.7905 4.80923 9.79455C4.81045 6.88825 7.17563 4.52382 10.084 4.52382C11.4921 4.52443 12.8161 5.07347 13.8117 6.06969C14.807 7.06627 15.3548 8.39022 15.3545 9.79891C15.3532 12.7055 12.9881 15.0696 10.0819 15.0696H10.0818ZM14.5693 5.31264C13.3717 4.11384 11.7788 3.45356 10.0818 3.45265C6.58518 3.45265 3.73932 6.2975 3.73805 9.79414C3.7377 10.9118 4.0298 12.0028 4.58477 12.9646L3.68497 16.2508L7.04759 15.369C7.97429 15.874 9.01761 16.1405 10.0793 16.1408H10.0818C13.5781 16.1408 16.424 13.296 16.4256 9.79932C16.4263 8.10486 15.7669 6.51124 14.5693 5.31274V5.31264Z" fill="white"></path>
  </g>
  <defs>
    <clipPath id="clip0_1_4">
      <rect width="1920" height="4000" fill="white" transform="translate(-1540 -3938)"></rect>
    </clipPath>
  </defs>
</svg>
