<svg width="58" height="49" viewBox="0 0 58 49" fill="none" xmlns="http://www.w3.org/2000/svg">
<g id="logo RGS">
<path d="M5.59647 1.43497C6.47755 1.66097 6.80521 1.73827 8.86593 2.25996C19.3401 4.91109 31.214 7.91663 39.1227 12.8824C47.7796 18.3175 51.7488 25.8829 44.5945 37.3416C44.2581 39.109 45.5529 40.5429 46.848 41.9766C48.46 43.7616 49.0559 44.7845 50.1202 46.8444L48.2738 47.3919C25.6358 54.1046 19.8164 38.6015 13.9973 23.0987C11.2796 15.858 8.56163 8.61701 4.0624 4.08842L0.000211427 0L5.59647 1.43497ZM37.4193 15.5731C30.293 11.0987 19.37 8.2136 9.46988 5.70229C12.6232 10.3546 14.8071 16.1723 16.9907 21.9899C22.0865 35.5655 27.185 49.138 45.1874 44.9152C44.9549 44.6457 44.7115 44.3762 44.4681 44.1069C42.379 41.7941 40.3263 39.1534 41.7429 35.8819C47.8053 26.3301 44.5641 20.059 37.4193 15.5731Z" fill="#9D832B"/>
<path d="M5.59648 47.5649C6.47755 47.3391 6.80522 47.2618 8.86594 46.7401C13.3739 45.5991 18.1411 44.3922 22.7397 42.9919C22.0083 42.1418 21.3235 41.2338 20.6788 40.2819C16.9661 41.3802 13.1473 42.3648 9.46988 43.2977C11.984 39.5884 13.8818 35.1382 15.6546 30.538C15.0396 29.0513 14.4656 27.5648 13.9171 26.1146C11.2261 33.284 8.51746 40.4272 4.06219 44.9112L0 48.9998L5.59648 47.5649ZM48.161 20.6356C47.793 17.9384 46.6561 14.9601 44.5945 11.6585C44.2581 9.89104 45.5529 8.45691 46.848 7.02342C47.7325 6.04403 48.6172 5.06464 49.2381 3.86285L50.1202 2.15562L48.2738 1.60795C36.926 -1.75686 29.805 0.461073 24.7909 5.46256C24.9633 5.51748 25.1355 5.57303 25.3077 5.62858C26.3808 5.9756 27.4651 6.34078 28.55 6.72814C32.4948 3.63917 37.7351 2.33663 45.1874 4.08462C44.9549 4.35413 44.7115 4.62363 44.4681 4.89293C42.5474 7.01919 40.6266 9.14588 41.5489 12.6695C42.3144 14.4369 46.321 16.664 48.161 20.6356Z" fill="#9D832B"/>
<path d="M52.6533 43.1045C55.6062 43.1045 58 40.7236 58 37.7866C58 34.8496 55.6062 32.4687 52.6533 32.4687C49.7003 32.4687 47.3065 34.8496 47.3065 37.7866C47.3065 40.7236 49.7003 43.1045 52.6533 43.1045Z" fill="#9D832B"/>
</g>
</svg>
