<svg width="30" height="30" viewBox="0 0 30 30" fill="none" xmlns="http://www.w3.org/2000/svg">
<path id="icon_phone" fill-rule="evenodd" clip-rule="evenodd" d="M20.3185 0.737316C20.3942 0.261286 20.843 -0.0647178 21.3191 0.0108971C21.7951 0.0863401 22.1211 0.53539 22.0455 1.01142C21.6102 3.75418 21.7126 6.66552 23.1802 9.10342C24.5788 11.4263 26.9304 12.8493 29.4243 13.7555C29.8763 13.9196 30.1121 14.4246 29.9476 14.8766C29.7833 15.3284 29.2786 15.564 28.8266 15.3999C25.9385 14.3506 23.2967 12.6865 21.682 10.0044C19.9915 7.19603 19.8155 3.90627 20.3185 0.737316ZM6.56025 2.55293C7.73984 4.588 8.91943 6.62308 10.0992 8.65815C9.64293 9.18969 8.61491 9.98931 8.10588 10.4155C9.11998 14.3303 11.0762 17.7572 14.0446 20.6603C14.6674 20.4304 15.8722 19.9358 16.5603 19.8041C17.7399 21.8392 18.9197 23.8743 20.0993 25.9093C18.6198 28.4613 15.9198 29.5432 13.5423 29.7102C8.70462 27.2249 -0.194226 11.7577 0.00323177 6.35379C1.32993 4.37353 3.61041 2.5684 6.56042 2.55293H6.56025ZM13.782 8.09413C13.8301 7.7915 14.1154 7.58442 14.418 7.63236C14.7206 7.68031 14.9277 7.96576 14.8798 8.26839C14.6031 10.0117 14.6682 11.8622 15.6009 13.4116C16.4897 14.8881 17.9845 15.7926 19.5696 16.3685C19.857 16.4729 20.0068 16.7938 19.9023 17.0811C19.7978 17.3683 19.4772 17.5182 19.1898 17.4138C17.3541 16.7469 15.6751 15.6891 14.6488 13.9844C13.5742 12.1993 13.4623 10.1084 13.7822 8.09413H13.782ZM16.9784 5.09445C17.0353 4.73597 17.3732 4.49074 17.7315 4.54762C18.0898 4.6045 18.335 4.94236 18.2782 5.30068C17.9504 7.36513 18.0276 9.55676 19.1323 11.3918C20.1849 13.1406 21.9551 14.2115 23.8322 14.8936C24.1725 15.0172 24.3499 15.3973 24.2263 15.7376C24.1026 16.0777 23.7226 16.255 23.3823 16.1315C21.2084 15.3416 19.2199 14.089 18.0046 12.0701C16.732 9.95598 16.5995 7.47976 16.9783 5.09445H16.9784Z" fill="white"/>
</svg>
