<svg width="50" height="50" viewBox="0 0 50 50" fill="none" xmlns="http://www.w3.org/2000/svg">
<path id="icon_facebook" d="M50 25.0001C50 11.1927 38.8073 0 24.9999 0C11.1934 0 0 11.1927 0 25.0001C0 37.4782 9.14217 47.8207 21.0942 49.6957V32.2268H14.7459V25.0001H21.0942V19.4926C21.0942 13.2266 24.8261 9.76568 30.5366 9.76568C33.2722 9.76568 36.1333 10.2541 36.1333 10.2541V16.4062H32.9806C29.8752 16.4062 28.9066 18.3333 28.9066 20.3104V25.0001H35.8402L34.7316 32.2268H28.9066V49.6957C40.8577 47.8207 50 37.4782 50 25L50 25.0001Z" fill="#9D832B"/>
</svg>
