<svg width="30" height="24" viewBox="0 0 30 24" fill="none" xmlns="http://www.w3.org/2000/svg">
<path id=" icon_email" fill-rule="evenodd" clip-rule="evenodd" d="M3.97656 0H26.0234C28.2107 0 30 1.7893 30 3.97656V19.1885C30 21.3758 28.2107 23.1651 26.0234 23.1651H3.97656C1.7893 23.1651 0 21.3758 0 19.1885V3.97656C0 1.7893 1.7893 0 3.97656 0ZM17.7336 12.6361L27.4424 21.1487C27.043 21.4392 26.5523 21.6112 26.0237 21.6112H3.97633C3.44778 21.6112 2.95715 21.4392 2.55757 21.1487L12.2664 12.6361L15.0001 15.0328L17.7337 12.6361H17.7336ZM28.3451 19.8784L18.9091 11.6055L28.3558 3.32285C28.4146 3.53099 28.4463 3.75032 28.4463 3.97656V19.1885C28.4463 19.4273 28.4109 19.6594 28.3452 19.8785L28.3451 19.8784ZM11.0907 11.6055L1.6548 19.8784C1.5891 19.6593 1.55372 19.428 1.55372 19.1884V3.97644C1.55372 3.75101 1.5853 3.53111 1.64419 3.32273L11.0909 11.6054L11.0907 11.6055ZM27.4707 2.03709L15 12.9712L2.52922 2.03709C2.93375 1.73409 3.4351 1.55383 3.97633 1.55383H26.0237C26.564 1.55383 27.066 1.73444 27.4708 2.03709H27.4707Z" fill="white"/>
</svg>
