<svg width="28" height="30" viewBox="0 0 28 30" fill="none" xmlns="http://www.w3.org/2000/svg">
<path id="icon coment_mensagem" fill-rule="evenodd" clip-rule="evenodd" d="M18.8213 22.119L6.38388 30V22.119H3.97321C1.78457 22.119 0 20.3344 0 18.146V3.97326C0 1.78462 1.78457 0 3.97321 0H23.6359C25.8246 0 27.6092 1.78462 27.6092 3.97326V18.146C27.6092 20.3345 25.8246 22.119 23.6359 22.119H18.8213ZM5.80953 8.00892C7.15875 8.00892 8.25264 9.10255 8.25264 10.4518C8.25264 11.8009 7.15875 12.8949 5.80953 12.8949C4.4604 12.8949 3.36677 11.8009 3.36677 10.4518C3.36677 9.10255 4.4604 8.00892 5.80953 8.00892ZM21.7997 8.00892C23.1488 8.00892 24.2424 9.10255 24.2424 10.4518C24.2424 11.8009 23.1488 12.8949 21.7997 12.8949C20.4504 12.8949 19.3566 11.8009 19.3566 10.4518C19.3566 9.10255 20.4504 8.00892 21.7997 8.00892ZM13.8048 8.00892C15.1539 8.00892 16.2475 9.10255 16.2475 10.4518C16.2475 11.8009 15.1539 12.8949 13.8048 12.8949C12.4553 12.8949 11.3617 11.8009 11.3617 10.4518C11.3617 9.10255 12.4553 8.00892 13.8048 8.00892ZM3.97321 1.67489H23.6359C24.9001 1.67489 25.9344 2.7091 25.9344 3.97326V18.146C25.9344 19.41 24.9001 20.4442 23.6359 20.4442H18.3353L8.05902 26.9557V20.4442H3.97321C2.70905 20.4442 1.67484 19.41 1.67484 18.146V3.97326C1.67484 2.7091 2.70905 1.67489 3.97321 1.67489Z" fill="white"/>
</svg>
