<svg width="50" height="50" viewBox="0 0 50 50" fill="none" xmlns="http://www.w3.org/2000/svg">
<path id="icon_whatsapp" d="M50 24.9999C50 38.8073 38.8073 50 25.0001 50C11.1935 50 0 38.8073 0 24.9999C0 11.1927 11.1935 0 25.0001 0C38.8073 0 50 11.1927 50 24.9999ZM32.4353 27.805C32.0387 27.6067 30.0909 26.649 29.7274 26.5163C29.364 26.3843 29.0999 26.318 28.8353 26.7146C28.5714 27.1113 27.8122 28.0042 27.5806 28.2681C27.3499 28.5321 27.1191 28.566 26.7226 28.3669C26.3258 28.1694 25.0498 27.7507 23.5357 26.4011C22.3576 25.351 21.5627 24.0535 21.3313 23.6568C21.1005 23.2601 21.3068 23.046 21.5052 22.8485C21.6837 22.6708 21.9018 22.3853 22.0993 22.1548C22.2978 21.9231 22.3641 21.7581 22.4953 21.4934C22.628 21.2294 22.5616 20.998 22.4628 20.7997C22.364 20.6013 21.5716 18.6513 21.2412 17.8579C20.9196 17.0859 20.5932 17.1903 20.3491 17.1782C20.1184 17.1664 19.8545 17.164 19.5898 17.164C19.3259 17.164 18.8968 17.2635 18.5333 17.6595C18.17 18.0569 17.1467 19.0147 17.1467 20.9646C17.1467 22.9141 18.5664 24.7977 18.7649 25.0625C18.9624 25.3273 21.5588 29.3287 25.5333 31.0441C26.4792 31.4526 27.2171 31.6961 27.7932 31.8785C28.7422 32.1803 29.6059 32.1376 30.2886 32.0357C31.0503 31.9219 32.633 31.0772 32.9633 30.1519C33.2943 29.2266 33.2943 28.4332 33.1949 28.2681C33.0952 28.103 32.8314 28.0042 32.4354 27.8051L32.4353 27.805ZM25.2046 37.6741H25.199C22.8342 37.6733 20.5141 37.0389 18.4904 35.8378L18.0086 35.5518L13.0203 36.8604L14.3516 31.9976L14.038 31.499C12.7192 29.4011 12.0214 26.9762 12.0231 24.4864C12.0261 17.2206 17.9391 11.3096 25.21 11.3096C28.7302 11.3111 32.0402 12.6837 34.5293 15.1742C37.0175 17.6657 38.387 20.9755 38.3862 24.4973C38.3829 31.7637 32.4702 37.6741 25.2047 37.6741H25.2046ZM36.4233 13.2816C33.4293 10.2846 29.4469 8.63391 25.2046 8.63162C16.463 8.63162 9.3483 15.7437 9.34513 24.4854C9.34424 27.2794 10.0745 30.0071 11.4619 32.4116L9.21243 40.627L17.619 38.4225C19.9357 39.6851 22.544 40.3513 25.1982 40.352H25.2046C33.9453 40.352 41.06 33.2399 41.064 24.4983C41.0657 20.2622 39.4173 16.2781 36.4233 13.2819V13.2816Z" fill="#9D832B"/>
</svg>
