<svg width="20" height="16" viewBox="0 0 20 16" fill="none" xmlns="http://www.w3.org/2000/svg">
<path id="icon_webmail" fill-rule="evenodd" clip-rule="evenodd" d="M2.65104 0H17.349C18.8071 0 20 1.19286 20 2.65104V12.7923C20 14.2505 18.8071 15.4434 17.349 15.4434H2.65104C1.19286 15.4434 0 14.2505 0 12.7923V2.65104C0 1.19286 1.19286 0 2.65104 0ZM11.8224 8.42404L18.295 14.0991C18.0286 14.2928 17.7016 14.4075 17.3491 14.4075H2.65088C2.29852 14.4075 1.97143 14.2928 1.70505 14.0991L8.17763 8.42404L10.0001 10.0219L11.8224 8.42404H11.8224ZM18.8967 13.2523L12.6061 7.73698L18.9039 2.21523C18.9431 2.35399 18.9642 2.50021 18.9642 2.65104V12.7923C18.9642 12.9515 18.9406 13.1063 18.8968 13.2524L18.8967 13.2523ZM7.39383 7.73698L1.1032 13.2523C1.0594 13.1062 1.03581 12.952 1.03581 12.7923V2.65096C1.03581 2.50067 1.05687 2.35407 1.09613 2.21515L7.39391 7.7369L7.39383 7.73698ZM18.3138 1.35806L10 8.64747L1.68614 1.35806C1.95584 1.15606 2.29007 1.03589 2.65088 1.03589H17.3491C17.7093 1.03589 18.044 1.15629 18.3139 1.35806H18.3138Z" fill="#9D832B"/>
</svg>
