<svg width="24" height="30" viewBox="0 0 24 30" fill="none" xmlns="http://www.w3.org/2000/svg">
<path id="icon_perfil" fill-rule="evenodd" clip-rule="evenodd" d="M14.1854 12.7157C19.4601 13.853 23.4137 18.5438 23.4137 24.1589C23.4137 26.2862 22.846 28.2807 21.8543 30C18.7721 28.5594 15.3338 27.7529 11.7068 27.7529C8.07988 27.7529 4.64161 28.5591 1.55934 30C0.56767 28.2807 0 26.2862 0 24.1589C0 18.5438 3.95358 13.853 9.22831 12.7157C6.81204 11.7359 5.10775 9.36656 5.10775 6.59877C5.10775 2.95425 8.06232 0 11.7065 0C15.351 0 18.3053 2.95425 18.3053 6.59877C18.3053 9.36656 16.601 11.7359 14.1847 12.7157H14.1854Z" fill="white"/>
</svg>
