<svg width="26" height="28" viewBox="0 0 26 28" fill="none" xmlns="http://www.w3.org/2000/svg">
<path id="icon_upload" fill-rule="evenodd" clip-rule="evenodd" d="M4.55503 7.27175L10.9198 0.864159C12.0643 -0.288053 13.937 -0.288053 15.0816 0.864159L21.4463 7.27175C22.5908 8.42397 22.5908 10.3093 21.4463 11.4615C20.3018 12.6134 18.4291 12.6134 17.2846 11.4615L15.9435 10.1113V18.0186C15.9435 18.884 15.2403 19.592 14.381 19.592H11.6203C10.7611 19.592 10.0579 18.884 10.0579 18.0186V10.1113L8.71675 11.4615C7.57225 12.6134 5.69954 12.6134 4.55503 11.4615C3.41053 10.3093 3.41053 8.42397 4.55503 7.27175ZM26 15.3906V26.2762C26 27.2155 25.2208 28 24.288 28H1.71169C0.7793 28 0 27.2244 0 26.2762V15.3906C0 14.4424 0.770423 13.6668 1.71169 13.6668H8.71242V18.0187C8.71242 19.6315 10.0184 20.9464 11.6203 20.9464H14.381C15.983 20.9464 17.2888 19.6315 17.2888 18.0187V13.6668H24.2879C25.2295 13.6668 26 14.4536 26 15.3906H26Z" fill="#9D832B"/>
</svg>
