<?xml version="1.0" encoding="UTF-8"?>
<svg xmlns="http://www.w3.org/2000/svg" width="46" height="50" viewBox="0 0 46 50" fill="none">
  <path fill-rule="evenodd" clip-rule="evenodd" d="M1.18837 21.7727L17.1975 5.76352L22.9611 0L28.7246 5.76352L44.7337 21.7727C46.3182 23.3573 46.3182 25.9512 44.7337 27.5357L44.7331 27.5364C43.52 28.7495 41.715 29.0336 40.2246 28.3891V50H32.3089V29.6302H14.3138V50H6.39812V27.9997C4.8111 29.1017 2.59998 28.9475 1.189 27.5365L1.18837 27.5359C-0.396124 25.9514 -0.396124 23.3575 1.18837 21.7728V21.7727ZM16.1238 31.9251H30.3636V49.9998H16.1238V31.9251ZM31.6722 20.2381L22.9611 11.5269L14.25 20.2381H31.672H31.6722Z" fill="#9D832B"></path>
</svg>
