<?xml version="1.0" encoding="UTF-8"?>
<svg xmlns="http://www.w3.org/2000/svg" width="40" height="40" viewBox="0 0 40 40" fill="none">
  <path fill-rule="evenodd" clip-rule="evenodd" d="M5.49027 9.12977H11.1355V5.58318C11.1355 2.51231 13.6675 0 16.7639 0H23.2349C26.3313 0 28.8645 2.51174 28.8645 5.58318V9.12977H34.5097C37.5295 9.12977 40 11.5821 40 14.5747V34.555C40 37.5476 37.5272 40 34.5097 40H5.49027C2.47275 40 0 37.5499 0 34.555V14.5747C0 11.5798 2.47045 9.12977 5.49027 9.12977ZM13.3093 9.12977H26.6901V5.58318C26.6901 3.69794 25.1358 2.15651 23.2349 2.15651H16.7645C14.8636 2.15651 13.3093 3.69794 13.3093 5.58318V9.12977ZM18.2036 10.7746H21.7958V15.4794C21.7958 16.4594 20.9879 17.2607 19.9997 17.2607C19.0115 17.2607 18.2036 16.4594 18.2036 15.4794V10.7746Z" fill="#9D832B"></path>
</svg>
