<?xml version="1.0" encoding="UTF-8"?>
<svg xmlns="http://www.w3.org/2000/svg" width="40" height="29" viewBox="0 0 40 29" fill="none">
  <path fill-rule="evenodd" clip-rule="evenodd" d="M19.0026 4.93736C19.0722 3.93189 20.9291 3.91926 20.9976 4.93736L21.6855 4.57741C21.7783 4.46538 21.8709 4.37467 22.0221 4.25291C22.2098 4.10184 22.3974 3.95065 22.3901 3.72752C21.7301 2.18554 22.3666 1.33368 23.5402 0.832394C24.6121 0.374548 26.1352 0.232746 27.4787 0.107742C27.743 0.0831814 27.785 0.0799376 27.898 0.0690475L28.6163 0L28.0358 0.423785C27.3928 0.8931 26.9168 1.7292 26.441 2.56519C25.4481 4.30956 24.4548 6.05348 21.9413 4.97907L21.0196 5.55114C21.0743 7.16762 21.1291 9.37703 21.1837 11.7706L22.0824 11.3002C22.1974 11.1617 22.3116 11.0497 22.4986 10.8991C22.7304 10.7123 22.9621 10.5256 22.9532 10.25C22.1377 8.34479 22.9243 7.29228 24.3741 6.67293C25.6987 6.10723 27.5805 5.93218 29.2404 5.77763C29.5669 5.74728 29.6188 5.74334 29.7584 5.72979L30.6459 5.64452L29.9286 6.16817C29.1342 6.74801 28.5461 7.78105 27.9583 8.81399C26.7313 10.9693 25.5042 13.124 22.3984 11.7966L21.201 12.5395C21.2538 14.8744 21.3062 17.3395 21.359 19.5712L22.94 18.7439C23.102 18.5485 23.2632 18.3902 23.5271 18.1777C23.8543 17.9141 24.1815 17.6504 24.169 17.2612C23.0178 14.5717 24.1282 13.0857 26.1751 12.2113C28.045 11.4128 30.7016 11.1654 33.0452 10.9473C33.5063 10.9043 33.5794 10.8987 33.7766 10.8797L35.0294 10.7593L34.0169 11.4985C32.8953 12.3173 32.0652 13.7757 31.2351 15.2339C29.5029 18.2769 27.7705 21.3185 23.386 19.4448L21.3857 20.686C21.4288 22.4458 21.472 24.0066 21.5153 25.1669C21.5153 25.1765 21.5147 25.1859 21.5143 25.1954C30.6153 24.4355 37.7625 16.8916 37.7625 7.6959C37.7625 6.15612 37.5615 4.66314 37.1852 3.24014C37.6801 2.67478 38.1463 2.08417 38.5829 1.47155C39.4968 3.73668 40 6.20779 40 8.79534C40 19.7175 31.0457 28.5714 20.0001 28.5714C8.95438 28.5714 0 19.7174 0 8.79534C0 6.20791 0.50333 3.73668 1.41708 1.47155C1.85386 2.08405 2.32005 2.67467 2.81495 3.24014C2.43862 4.66314 2.23757 6.15612 2.23757 7.6959C2.23757 16.8915 9.38484 24.4354 18.4856 25.1954C18.4853 25.1859 18.4846 25.1766 18.4846 25.1669C18.528 24.0068 18.5711 22.4458 18.6143 20.686L16.614 19.4448C12.2295 21.3185 10.4971 18.2769 8.76493 15.2339C7.93483 13.7757 7.10474 12.3173 5.98314 11.4985L4.9705 10.7593L6.22344 10.8797C6.42063 10.8986 6.49374 10.9043 6.95477 10.9473C9.29837 11.1653 11.955 11.4127 13.8249 12.2113C15.8718 13.0857 16.9822 14.5717 15.831 17.2612C15.8184 17.6504 16.1457 17.914 16.4728 18.1777C16.7368 18.3903 16.898 18.5486 17.06 18.7439L18.641 19.5712C18.6938 17.3394 18.7462 14.8744 18.799 12.5395L17.6016 11.7966C14.4958 13.124 13.2687 10.9694 12.0417 8.81399C11.4538 7.78094 10.8658 6.74801 10.0714 6.16817L9.35414 5.64452L10.2416 5.72979C10.3813 5.74334 10.4331 5.74728 10.7596 5.77763C12.4196 5.93218 14.3014 6.10723 15.6257 6.67293C17.0757 7.29228 17.8623 8.34479 17.0468 10.25C17.0378 10.5256 17.2696 10.7123 17.5014 10.8991C17.6884 11.0496 17.8026 11.1617 17.9174 11.3002L18.8163 11.7706C18.871 9.37703 18.9256 7.16762 18.9805 5.55114L18.0587 4.97907C15.5452 6.05336 14.5518 4.30956 13.5589 2.56519C13.0831 1.7292 12.6073 0.892984 11.9642 0.423785L11.3837 0L12.102 0.0690475C12.215 0.0799376 12.257 0.0831814 12.5212 0.107742C13.8648 0.232862 15.3877 0.374548 16.4598 0.832394C17.6332 1.33368 18.2699 2.18554 17.6099 3.72752C17.6027 3.95065 17.7903 4.10184 17.9779 4.25291C18.1291 4.37467 18.2217 4.4655 18.3146 4.57741L19.0024 4.93736H19.0026Z" fill="#9D832B"></path>
</svg>
