<?xml version="1.0" encoding="UTF-8"?>
<svg xmlns="http://www.w3.org/2000/svg" width="40" height="32" viewBox="0 0 40 32" fill="none">
  <path fill-rule="evenodd" clip-rule="evenodd" d="M5.30208 0H34.6979C37.6143 0 40 2.45354 40 5.45279V26.3119C40 29.3112 37.6143 31.7647 34.6979 31.7647H5.30208C2.38573 31.7647 0 29.3112 0 26.3119V5.45279C0 2.45354 2.38573 0 5.30208 0ZM23.6447 17.327L36.5899 28.9998C36.0573 29.3981 35.4031 29.634 34.6982 29.634H5.30177C4.59704 29.634 3.94287 29.3981 3.41009 28.9998L16.3553 17.327L20.0002 20.6135L23.6449 17.327H23.6447ZM37.7934 27.2579L25.2122 15.9138L37.8077 4.5564C37.8861 4.84181 37.9284 5.14256 37.9284 5.45279V26.3119C37.9284 26.6394 37.8812 26.9577 37.7936 27.2581L37.7934 27.2579ZM14.7877 15.9138L2.20639 27.2579C2.1188 26.9575 2.07163 26.6403 2.07163 26.3118V5.45263C2.07163 5.14351 2.11373 4.84197 2.19226 4.55624L14.7878 15.9136L14.7877 15.9138ZM36.6276 2.79332L20 17.7866L3.37229 2.79332C3.91167 2.37784 4.58014 2.13067 5.30177 2.13067H34.6982C35.4186 2.13067 36.088 2.37832 36.6277 2.79332H36.6276Z" fill="#9D832B"></path>
</svg>
