<?xml version="1.0"?><svg xmlns="http://www.w3.org/2000/svg" version="1.1" width="133" height="75" viewBox="0 0 133 75"><g><g transform="translate(10 10)"><g><text x="3" y="55" text-anchor="middle" font-family="monospace" font-size="8" fill="#000000">1</text></g><g><rect x="9" y="0" width="1" height="55" fill="#000000"/><rect x="11" y="0" width="1" height="55" fill="#000000"/></g><g><rect x="14" y="0" width="2" height="55" fill="#000000"/><rect x="18" y="0" width="1" height="55" fill="#000000"/></g><g><rect x="21" y="0" width="1" height="50" fill="#000000"/><rect x="24" y="0" width="2" height="50" fill="#000000"/><text x="24.833333333333" y="60" text-anchor="middle" font-family="monospace" font-size="8" fill="#000000">2</text></g><g><rect x="27" y="0" width="4" height="50" fill="#000000"/><rect x="32" y="0" width="1" height="50" fill="#000000"/><text x="30.666666666667" y="60" text-anchor="middle" font-family="monospace" font-size="8" fill="#000000">3</text></g><g><rect x="34" y="0" width="1" height="50" fill="#000000"/><rect x="38" y="0" width="2" height="50" fill="#000000"/><text x="36.5" y="60" text-anchor="middle" font-family="monospace" font-size="8" fill="#000000">4</text></g><g><rect x="41" y="0" width="2" height="50" fill="#000000"/><rect x="46" y="0" width="1" height="50" fill="#000000"/><text x="42.333333333333" y="60" text-anchor="middle" font-family="monospace" font-size="8" fill="#000000">5</text></g><g><rect x="48" y="0" width="1" height="50" fill="#000000"/><rect x="50" y="0" width="4" height="50" fill="#000000"/><text x="48.166666666667" y="60" text-anchor="middle" font-family="monospace" font-size="8" fill="#000000">6</text></g><g><rect x="55" y="0" width="1" height="55" fill="#000000"/><rect x="57" y="0" width="1" height="55" fill="#000000"/></g><g><rect x="59" y="0" width="1" height="50" fill="#000000"/><rect x="63" y="0" width="1" height="50" fill="#000000"/><text x="64.833333333333" y="60" text-anchor="middle" font-family="monospace" font-size="8" fill="#000000">7</text></g><g><rect x="66" y="0" width="1" height="50" fill="#000000"/><rect x="69" y="0" width="1" height="50" fill="#000000"/><text x="70.666666666667" y="60" text-anchor="middle" font-family="monospace" font-size="8" fill="#000000">8</text></g><g><rect x="73" y="0" width="3" height="50" fill="#000000"/><rect x="78" y="0" width="1" height="50" fill="#000000"/><text x="76.5" y="60" text-anchor="middle" font-family="monospace" font-size="8" fill="#000000">0</text></g><g><rect x="80" y="0" width="3" height="50" fill="#000000"/><rect x="85" y="0" width="1" height="50" fill="#000000"/><text x="82.333333333333" y="60" text-anchor="middle" font-family="monospace" font-size="8" fill="#000000">0</text></g><g><rect x="87" y="0" width="3" height="50" fill="#000000"/><rect x="91" y="0" width="1" height="50" fill="#000000"/><text x="88.166666666667" y="60" text-anchor="middle" font-family="monospace" font-size="8" fill="#000000">9</text></g><g><rect x="94" y="0" width="3" height="55" fill="#000000"/><rect x="99" y="0" width="1" height="55" fill="#000000"/></g><g><rect x="101" y="0" width="1" height="55" fill="#000000"/><rect x="103" y="0" width="1" height="55" fill="#000000"/></g><g><text x="110" y="55" text-anchor="middle" font-family="monospace" font-size="8" fill="#000000">0</text></g></g></g></svg>
