<?xml version="1.0" encoding="utf-8"?>
<!-- Svg Vector Icons : http://www.onlinewebfonts.com/icon -->
<!DOCTYPE svg PUBLIC "-//W3C//DTD SVG 1.1//EN" "http://www.w3.org/Graphics/SVG/1.1/DTD/svg11.dtd">
<svg version="1.1" xmlns="http://www.w3.org/2000/svg" xmlns:xlink="http://www.w3.org/1999/xlink" x="0px" y="0px" viewBox="0 0 1000 1000" enable-background="new 0 0 1000 1000" xml:space="preserve">
<metadata> Svg Vector Icons : http://www.onlinewebfonts.com/icon </metadata>
<g><g transform="translate(0.000000,511.000000) scale(0.100000,-0.100000)"><path d="M3290.9,2718.3c-306.5-79.7-633.3-382-827.4-768.2c-224.7-447.4-183.9-1076.7,96-1448.5c28.6-36.8,47-71.5,44.9-73.5c-4.1-4.1-155.3-61.3-335-128.7c-210.4-77.6-331-114.4-339.2-100.1c-8.2,12.3-20.4,59.2-28.6,104.2c-6.1,44.9-45,181.8-83.8,302.4c-65.4,198.2-79.7,222.7-136.9,251.3c-81.7,38.8-167.5,12.3-202.3-63.3c-18.4-42.9-12.3-85.8,40.9-261.5c36.8-114.4,77.6-265.6,94-337.1c26.6-118.5,26.6-130.8-4.1-141C1241.8-76.5,773.9-307.3,569.6-458.5C295.8-662.8,161-850.8,112-1102.1c-42.9-212.5,30.6-469.9,202.3-723.2c216.6-314.6,437.2-527.1,657.9-633.3c149.1-71.5,357.5-77.6,480.1-12.3c196.1,104.2,369.8,371.8,457.6,708.9c98.1,375.9,134.9,909.1,98.1,1421.9l-16.4,214.5l433.1,161.4c424.9,159.4,433.1,161.4,486.2,126.7C3201-27.5,3650.5-103,4024.3-23.4C4102-7,4169.4,3.2,4173.5-0.9c8.2-6.1-71.5-114.4-439.2-590.4c-226.8-296.2-437.2-770.2-465.8-1052.1c-36.8-349.4,157.3-555.7,461.7-496.5c151.2,30.6,331,120.5,484.2,245.2c120.5,98.1,128.7,100.1,149.1,63.3c12.3-22.5,51.1-55.2,85.8-73.6c161.4-83.8,463.7,59.2,796.8,377.9c130.7,122.6,141,128.7,175.7,98.1c20.4-18.4,89.9-59.3,157.3-89.9c104.2-49,147.1-57.2,296.2-57.2c153.2,2,190,10.2,310.5,67.4c226.8,110.3,457.6,349.3,619,643.5l73.5,134.8l100.1-12.3c151.2-18.4,239,8.2,337.1,98.1c94,87.9,155.3,208.4,194.1,386.1l24.5,112.4l147.1-6.1C7963.2-164.3,8474,9.3,9135.9,344.4C9691.6,624.3,9900,775.5,9900,893.9c0,14.3-18.4,51.1-42.9,81.7c-63.4,79.7-149.2,71.5-279.9-26.6c-420.9-316.7-1536.3-798.8-1844.8-798.8c-67.4,0-83.8,10.2-110.3,61.3c-34.7,65.4-104.2,94-183.9,73.5c-71.5-18.4-143-155.3-204.3-390.2c-30.6-112.4-65.4-226.8-77.6-253.3c-28.6-59.2-126.7-120.5-151.2-96c-8.1,8.2-14.3,79.7-10.2,159.4c6.1,173.7-22.5,220.6-138.9,220.6c-106.3,0-143-51.1-175.7-239c-63.3-365.7-357.5-794.7-631.3-923.4c-151.2-71.5-324.8-49-443.3,53.1c-30.6,28.6-18.4,51.1,145.1,298.3c241.1,359.6,406.6,639.5,584.3,984.7c175.7,339.1,222.7,510.7,212.5,778.4c-8.2,171.6-10.2,175.7-83.8,245.2c-155.3,141-341.2,75.6-623.1-224.7c-570-602.7-884.6-1499.6-690.5-1967.4l30.6-73.5l-94-110.3c-91.9-108.3-382-331-431.1-333c-38.8,0,18.4,165.5,112.4,322.8c126.7,214.5,188,345.3,188,402.5c0,61.3-59.3,126.7-134.8,145c-87.8,22.5-151.2-47-294.2-320.8c-118.5-224.7-155.3-275.8-337.1-459.7c-159.4-161.4-237-222.7-355.5-279.9c-81.7-40.9-171.6-75.6-198.2-75.6c-96,0-89.9,167.5,16.4,467.8c110.3,316.7,171.6,414.7,506.7,839.7c249.3,314.6,320.8,416.8,394.3,561.8c116.5,234.9,120.5,353.4,12.3,410.6c-61.3,30.6-69.4,30.6-241.1-40.9c-286-116.5-398.4-143-635.4-143c-173.7-2-241.1,8.2-355.5,47l-138.9,47l181.8,96c488.3,259.5,686.4,478.1,823.3,911.2c55.2,177.7,77.6,523,42.9,690.5c-59.2,277.8-251.3,535.3-480.1,639.5C3630,2736.7,3431.9,2753.1,3290.9,2718.3z M3638.2,2399.6c100.1-44.9,204.3-159.4,261.5-286c57.2-132.8,71.5-437.2,26.6-614.9c-79.7-312.6-202.2-484.2-474-664C3295,730.5,2935.4,552.8,2904.8,565c-51.1,20.4-196.1,263.6-237,396.3c-94,302.4-67.4,578.2,81.7,874.4c87.8,175.7,269.7,394.3,404.5,488.3C3323.6,2440.5,3491.1,2467.1,3638.2,2399.6z M6241,740.7c-8.2-57.2-30.6-155.3-49-218.6c-49-171.6-398.4-802.9-670.1-1207.4c-85.8-126.7-104.2-145-120.5-114.4c-26.6,45-6.1,220.6,47,418.8c87.8,326.9,353.4,790.6,621.1,1078.7C6234.8,877.6,6263.5,883.7,6241,740.7z M1697.4-393.2c8.2-73.5,10.2-318.7,4.1-545.5c-16.4-625.2-108.3-982.7-300.3-1182.9c-112.4-116.5-171.6-124.6-331-45c-200.2,102.1-547.5,516.9-631.3,753.9c-138.9,396.3,124.6,680.3,982.7,1064.4c106.2,49,210.4,87.8,228.8,87.8C1676.9-258.3,1687.1-284.9,1697.4-393.2z"/></g></g>
</svg>