<svg width="43" height="31" viewBox="0 0 43 31" fill="none" xmlns="http://www.w3.org/2000/svg">
<path id="icon_verificado" d="M23.3884 24.451L3.04092 11.2818C2.85071 11.1587 2.62713 11.1246 2.42192 11.1693C2.21687 11.2148 2.02769 11.3395 1.90554 11.5312L0.130366 14.318C0.00809736 14.5098 -0.0256743 14.7351 0.0186138 14.942C0.0638147 15.1487 0.187472 15.3393 0.3778 15.4625L21.3989 29.0677L24.1813 30.8685C24.3715 30.9916 24.5951 31.0257 24.8003 30.9811C25.0054 30.9356 25.1945 30.8109 25.3167 30.6191L27.092 27.8324L27.1033 27.8146L42.8696 3.06512C42.9918 2.87327 43.0256 2.64803 42.9813 2.44107C42.9361 2.2345 42.8125 2.04382 42.6221 1.92058L39.8574 0.131271C39.6671 0.00814938 39.4437 -0.0258911 39.2384 0.0187896C39.0334 0.0642302 38.8442 0.188872 38.7221 0.380715L23.3884 24.451H23.3884Z" fill="#00A859"/>
</svg>
