<svg width="40" height="64" viewBox="0 0 40 64" fill="none" xmlns="http://www.w3.org/2000/svg">
<path fill-rule="evenodd" clip-rule="evenodd" d="M0.00147727 43.2279V3.61753C0.00147727 1.62774 1.63534 0 3.6326 0H36.3689C38.3661 0 40 1.63216 40 3.61753V43.2279C40 43.7842 39.8715 44.314 39.6425 44.7865L38.7 43.1617V40.0695L36.0114 38.5213L34.4588 35.8427L31.3535 35.8412L31.2191 35.7632H34.9758C35.3215 35.7632 35.6066 35.4792 35.6066 35.1348C35.6066 34.7889 35.323 34.5064 34.9758 34.5064H29.0313L28.6634 34.2959L28.2971 34.5064H5.02271C4.67555 34.5064 4.39192 34.7889 4.39192 35.1348C4.39192 35.4807 4.67555 35.7632 5.02271 35.7632H26.1092L25.9748 35.8412L22.8696 35.8427L21.574 38.0812H5.02419C4.67703 38.0812 4.3934 38.3638 4.3934 38.7097C4.3934 39.0555 4.67703 39.3381 5.02419 39.3381H19.8973L18.6284 40.0681V43.1602L17.0757 45.8388L17.6578 46.8425H3.63113C1.63681 46.8425 0 45.2147 0 43.2249L0.00147727 43.2279ZM28.6664 35.7L31.0285 37.0584L33.7571 37.0598L35.1206 39.4131L37.4827 40.773V43.4899L38.8463 45.8446L37.4827 48.1994V50.9162L35.1206 52.2747L33.8944 54.3925V50.6808L35.484 49.7654V47.6637L36.5388 45.8432L35.484 44.0226V41.921L33.6581 40.8702L32.6033 39.0511H30.4938L28.6664 38.0003L26.839 39.0511H24.7295L23.6747 40.8702L21.8473 41.921V44.0226L20.7926 45.8417L21.8473 47.6622V49.7624L23.4369 50.6778V54.3896L22.2093 52.2717L19.8471 50.9133V48.1965L18.4836 45.8417L19.8471 43.4884V40.7716L22.2093 39.4117L23.5728 37.0584L26.3013 37.0569L28.6634 35.6985L28.6664 35.7ZM28.6664 39.0702L30.2426 39.9783L32.0641 39.9798L32.9741 41.5501L34.5504 42.4567V44.2714L35.4618 45.8432L34.5504 47.415V49.2296L32.9726 50.1377L32.0626 51.708L30.2412 51.7095L28.6649 52.6176L27.0887 51.7095L25.2672 51.708L24.3557 50.1377L22.7795 49.2296V47.4165L21.868 45.8446L22.7795 44.2743V42.4582L24.3572 41.5516L25.2672 39.9812L27.0887 39.9798L28.6649 39.0717L28.6664 39.0702ZM33.0524 51.6212V64L28.8909 59.2169L24.2789 64V51.6197L24.7989 52.5146L26.8715 52.516L28.6664 53.5492L30.4613 52.516L32.5354 52.5146L33.0539 51.6212H33.0524ZM5.02567 4.55944H18.1409C18.488 4.55944 18.7717 4.84202 18.7717 5.18788C18.7717 5.53374 18.488 5.81631 18.1409 5.81631H5.02567C4.67851 5.81631 4.39487 5.53374 4.39487 5.18788C4.39487 4.84202 4.67851 4.55944 5.02567 4.55944ZM5.02567 9.48682H34.9788C35.3259 9.48682 35.6096 9.7694 35.6096 10.1153V10.1167C35.6096 10.4611 35.3259 10.7452 34.9788 10.7452H5.02567C4.67851 10.7452 4.39487 10.4626 4.39487 10.1167V10.1153C4.39487 9.7694 4.67851 9.48682 5.02567 9.48682ZM5.02567 13.0617H34.9788C35.3259 13.0617 35.6096 13.3442 35.6096 13.6901C35.6096 14.036 35.3259 14.3185 34.9788 14.3185H5.02567C4.67851 14.3185 4.39487 14.036 4.39487 13.6901C4.39487 13.3442 4.67851 13.0617 5.02567 13.0617ZM5.02567 16.6365H34.9788C35.3259 16.6365 35.6096 16.9191 35.6096 17.265V17.2664C35.6096 17.6108 35.3259 17.8949 34.9788 17.8949H5.02567C4.67851 17.8949 4.39487 17.6123 4.39487 17.2664V17.265C4.39487 16.9191 4.67851 16.6365 5.02567 16.6365ZM5.02567 20.2114H34.9788C35.3259 20.2114 35.6096 20.494 35.6096 20.8398C35.6096 21.1857 35.3259 21.4682 34.9788 21.4682H5.02567C4.67851 21.4682 4.39487 21.1857 4.39487 20.8398C4.39487 20.494 4.67851 20.2114 5.02567 20.2114ZM5.02567 23.7848H34.9788C35.3259 23.7848 35.6096 24.0673 35.6096 24.4132C35.6096 24.7591 35.3259 25.0416 34.9788 25.0416H5.02567C4.67851 25.0416 4.39487 24.7591 4.39487 24.4132C4.39487 24.0673 4.67851 23.7848 5.02567 23.7848ZM5.02567 27.3596H34.9788C35.3259 27.3596 35.6096 27.6422 35.6096 27.988C35.6096 28.3339 35.3259 28.6165 34.9788 28.6165H5.02567C4.67851 28.6165 4.39487 28.3339 4.39487 27.988C4.39487 27.6422 4.67851 27.3596 5.02567 27.3596ZM5.02567 30.9345H34.9788C35.3259 30.9345 35.6096 31.217 35.6096 31.5629C35.6096 31.9088 35.3259 32.1913 34.9788 32.1913H5.02567C4.67851 32.1913 4.39487 31.9088 4.39487 31.5629C4.39487 31.217 4.67851 30.9345 5.02567 30.9345Z" fill="white"/>
</svg>
