<svg width="70" height="51" viewBox="0 0 70 51" fill="none" xmlns="http://www.w3.org/2000/svg">
<path id="icon &#195;&#161;rvore geneal&#195;&#179;gica" fill-rule="evenodd" clip-rule="evenodd" d="M33.2545 8.73816C33.3763 6.95866 36.6259 6.93632 36.7459 8.73816L37.9496 8.10112C38.112 7.90285 38.274 7.74231 38.5387 7.52682C38.8672 7.25945 39.1954 6.99188 39.1827 6.59698C38.0277 3.86797 39.1415 2.36036 41.1953 1.47317C43.0712 0.662876 45.7366 0.411914 48.0878 0.190682C48.5503 0.147215 48.6237 0.141474 48.8216 0.122201L50.0784 0L49.0627 0.750016C47.9375 1.58061 47.1044 3.06034 46.2718 4.53987C44.5341 7.62708 42.7958 10.7135 38.3972 8.81197L36.7842 9.82443C36.88 12.6853 36.9759 16.5955 37.0715 20.8317L38.6443 19.9991C38.8454 19.754 39.0453 19.5558 39.3726 19.2892C39.7781 18.9587 40.1837 18.6282 40.1681 18.1404C38.7411 14.7686 40.1175 12.9059 42.6548 11.8098C44.9727 10.8086 48.2659 10.4988 51.1707 10.2253C51.7421 10.1716 51.8329 10.1646 52.0771 10.1406L53.6302 9.98969L52.375 10.9164C50.9849 11.9426 49.9556 13.7709 48.927 15.599C46.7798 19.4135 44.6323 23.2269 39.1973 20.8776L37.1018 22.1925C37.1941 26.3248 37.2859 30.6875 37.3782 34.6371L40.1449 33.1729C40.4285 32.8272 40.7106 32.547 41.1724 32.1709C41.745 31.7045 42.3177 31.2378 42.2957 30.5489C40.2811 25.789 42.2244 23.1591 45.8063 21.6117C49.0787 20.1984 53.7278 19.7606 57.8292 19.3745C58.636 19.2985 58.7639 19.2886 59.109 19.255L61.3014 19.0418L59.5295 20.3501C57.5667 21.7993 56.114 24.3802 54.6614 26.961C51.6301 32.3464 48.5983 37.7296 40.9255 34.4134L37.4249 36.6101C37.5004 39.7246 37.576 42.487 37.6517 44.5405C37.6517 44.5575 37.6507 44.5741 37.6501 44.5909C53.5767 43.2461 66.0845 29.8948 66.0845 13.6202C66.0845 10.8951 65.7326 8.25284 65.074 5.7344C65.9401 4.73384 66.7559 3.68857 67.5201 2.60435C69.1194 6.61318 70 10.9866 70 15.566C70 34.896 54.33 50.5658 35.0002 50.5658C15.6702 50.5658 0 34.8958 0 15.566C0 10.9868 0.880828 6.61318 2.47989 2.60435C3.24426 3.68836 4.06009 4.73363 4.92616 5.7344C4.26759 8.25284 3.91575 10.8951 3.91575 13.6202C3.91575 29.8946 16.4235 43.2459 32.3497 44.5909C32.3493 44.5741 32.3481 44.5577 32.3481 44.5405C32.4239 42.4872 32.4994 39.7246 32.5751 36.6101L29.0745 34.4134C21.4017 37.7296 18.3699 32.3464 15.3386 26.961C13.886 24.3802 12.4333 21.7993 10.4705 20.3501L8.69838 19.0418L10.891 19.255C11.2361 19.2884 11.364 19.2985 12.1708 19.3745C16.2722 19.7604 20.9213 20.1982 24.1937 21.6117C27.7756 23.1591 29.7189 25.789 27.7043 30.5489C27.6821 31.2378 28.255 31.7043 28.8274 32.1709C29.2894 32.5472 29.5715 32.8275 29.8551 33.1729L32.6218 34.6371C32.7141 30.6873 32.8059 26.3248 32.8982 22.1925L30.8027 20.8776C25.3677 23.2269 23.2202 19.4137 21.073 15.599C20.0442 13.7707 19.0151 11.9426 17.625 10.9164L16.3697 9.98969L17.9229 10.1406C18.1673 10.1646 18.2579 10.1716 18.8293 10.2253C21.7343 10.4988 25.0275 10.8086 27.345 11.8098C29.8825 12.9059 31.2589 14.7686 29.8319 18.1404C29.8161 18.6282 30.2219 18.9587 30.6274 19.2892C30.9547 19.5556 31.1546 19.754 31.3555 19.9991L32.9285 20.8317C33.0243 16.5955 33.1198 12.6853 33.2158 9.82443L31.6028 8.81197C27.2042 10.7133 25.4657 7.62708 23.728 4.53987C22.8954 3.06034 22.0627 1.58041 20.9373 0.750016L19.9216 0L21.1784 0.122201C21.3763 0.141474 21.4497 0.147215 21.912 0.190682C24.2634 0.412119 26.9284 0.662876 28.8047 1.47317C30.8581 2.36036 31.9723 3.86797 30.8173 6.59698C30.8048 6.99188 31.133 7.25945 31.4613 7.52682C31.726 7.74231 31.888 7.90305 32.0506 8.10112L33.2541 8.73816H33.2545Z" fill="white"/>
</svg>
