<svg width="418" height="238" viewBox="0 0 418 238" fill="none" xmlns="http://www.w3.org/2000/svg">
<path fill-rule="evenodd" clip-rule="evenodd" d="M135.968 147.474C139.888 148.313 142.825 151.779 142.825 155.929C142.825 157.501 142.403 158.975 141.666 160.245L141.367 160.11L134.128 169.678L126.888 160.11C126.787 160.154 126.687 160.2 126.588 160.245C125.851 158.975 125.43 157.501 125.43 155.929C125.43 151.779 128.367 148.313 132.286 147.474C130.49 146.749 129.225 144.999 129.225 142.953C129.225 140.26 131.42 138.077 134.128 138.077C136.836 138.077 139.031 140.26 139.031 142.953C139.031 144.999 137.765 146.749 135.97 147.474H135.968ZM41.0125 68.6881C41.0125 68.9314 40.8139 69.1289 40.5693 69.1289C40.3247 69.1289 40.126 68.9314 40.126 68.6881V63.7986H8.54555C8.30094 63.7986 8.1023 63.6005 8.1023 63.3578V34.6902C8.1023 34.4469 8.30094 34.2494 8.54555 34.2494C8.78958 34.2494 8.98821 34.4469 8.98821 34.6902V62.917H71.555V34.6902C71.555 34.4469 71.7536 34.2494 71.9983 34.2494C72.2423 34.2494 72.4415 34.4469 72.4415 34.6902V63.3578C72.4415 63.6005 72.2423 63.7986 71.9983 63.7986H41.0125V68.6881ZM135.014 68.6881C135.014 68.9314 134.815 69.1289 134.571 69.1289C134.326 69.1289 134.128 68.9314 134.128 68.6881V63.7986H102.547C102.303 63.7986 102.103 63.6005 102.103 63.3578V34.6902C102.103 34.4469 102.303 34.2494 102.547 34.2494C102.791 34.2494 102.99 34.4469 102.99 34.6902V62.917H165.557V34.6902C165.557 34.4469 165.755 34.2494 165.999 34.2494C166.244 34.2494 166.443 34.4469 166.443 34.6902V63.3578C166.443 63.6005 166.244 63.7986 165.999 63.7986H135.014V68.6881ZM283.872 68.6881C283.872 68.9314 283.673 69.1289 283.428 69.1289C283.184 69.1289 282.986 68.9314 282.986 68.6881V63.7986H251.405C251.16 63.7986 250.962 63.6005 250.962 63.3578V34.6902C250.962 34.4469 251.16 34.2494 251.405 34.2494C251.649 34.2494 251.848 34.4469 251.848 34.6902V62.917H314.414V34.6902C314.414 34.4469 314.613 34.2494 314.857 34.2494C315.102 34.2494 315.301 34.4469 315.301 34.6902V63.3578C315.301 63.6005 315.102 63.7986 314.857 63.7986H283.872V68.6881ZM377.873 68.6881C377.873 68.9314 377.675 69.1289 377.43 69.1289C377.186 69.1289 376.987 68.9314 376.987 68.6881V63.7986H345.406C345.162 63.7986 344.963 63.6005 344.963 63.3578V34.6902C344.963 34.4469 345.162 34.2494 345.406 34.2494C345.65 34.2494 345.85 34.4469 345.85 34.6902V62.917H408.416V34.6902C408.416 34.4469 408.615 34.2494 408.859 34.2494C409.103 34.2494 409.302 34.4469 409.302 34.6902V63.3578C409.302 63.6005 409.103 63.7986 408.859 63.7986H377.873V68.6881ZM129.148 141.001L123.81 133.62H134.128C134.372 133.62 134.571 133.423 134.571 133.18V104.512C134.571 104.269 134.372 104.071 134.128 104.071C133.883 104.071 133.684 104.269 133.684 104.512V132.739H40.8604V104.512C40.8604 104.269 40.6612 104.071 40.4172 104.071C40.1726 104.071 39.9739 104.269 39.9739 104.512V133.18C39.9739 133.423 40.1726 133.62 40.4172 133.62H122.795L128.427 141.514L129.148 141.001L129.148 141.001ZM288.404 141.001L293.742 133.62H283.277C283.032 133.62 282.834 133.423 282.834 133.18V104.512C282.834 104.269 283.032 104.071 283.277 104.071C283.522 104.071 283.72 104.269 283.72 104.512V132.739H376.544V104.512C376.544 104.269 376.743 104.071 376.987 104.071C377.232 104.071 377.431 104.269 377.431 104.512V133.18C377.431 133.423 377.232 133.62 376.987 133.62H294.758L289.126 141.514L288.405 141.001L288.404 141.001ZM10.5384 9.39622C14.4581 10.2362 17.3953 13.7025 17.3953 17.8516C17.3953 19.4238 16.9738 20.8975 16.2364 22.1684L15.937 22.033L8.69763 31.6009L1.45766 22.0324C1.35687 22.0769 1.25725 22.1226 1.15823 22.1684C0.421442 20.8981 0 19.4238 0 17.8516C0 13.7025 2.93713 10.2362 6.85625 9.39622C5.06143 8.67226 3.79475 6.92128 3.79475 4.87661C3.79475 2.1836 5.99038 0 8.69822 0C11.4061 0 13.6011 2.1836 13.6011 4.87661C13.6011 6.92128 12.335 8.67226 10.5396 9.39622H10.5384ZM8.69822 10.7328L10.0657 12.0927L9.36368 12.7909L10.0657 14.9616L8.69822 19.1911L7.32956 14.9616L8.03216 12.7909L7.32956 12.0927L8.69763 10.7328L8.69822 10.7316V10.7328ZM74.2823 9.39622C78.2014 10.2362 81.1391 14.9915 81.1391 17.8516C81.1391 20.7122 80.7171 20.8975 79.9803 22.1684L79.6809 22.033L72.4415 31.6009L65.2015 22.0324C65.1007 22.0769 65.0011 22.1226 64.9021 22.1684C64.1653 20.8981 63.7439 20.7122 63.7439 17.8516C63.7439 14.9915 66.6804 10.2362 70.6001 9.39622C69.9276 9.12481 69.3293 8.71036 68.8442 8.18864C67.3005 9.2485 65.7568 8.96243 64.2131 8.18864C68.5542 7.03207 66.9015 3.40114 68.8195 1.58978C69.716 0.613166 70.8383 0 72.4415 0C74.0442 0 75.7641 0.934405 76.6259 2.33425C78.0546 4.15089 76.0801 6.96524 80.6693 8.18864C79.3443 9.06384 77.8631 9.31532 76.0382 8.18864C75.5531 8.70978 74.9548 9.12481 74.2823 9.39622ZM104.54 9.39622C108.459 10.2362 111.397 13.7025 111.397 17.8516C111.397 19.4238 110.975 20.8975 110.238 22.1684L109.939 22.033L102.699 31.6009L95.4593 22.0324C95.3585 22.0769 95.2589 22.1226 95.1599 22.1684C94.4231 20.8981 94.0011 19.4238 94.0011 17.8516C94.0011 13.7025 96.9382 10.2362 100.857 9.39622C99.0625 8.67226 97.7964 6.92128 97.7964 4.87661C97.7964 2.1836 99.992 0 102.7 0C105.408 0 107.603 2.1836 107.603 4.87661C107.603 6.92128 106.336 8.67226 104.541 9.39622H104.54ZM102.7 10.7328L104.067 12.0927L103.365 12.7909L104.067 14.9616L102.699 19.1911L101.331 14.9616L102.034 12.7909L101.331 12.0927L102.699 10.7328V10.7316L102.7 10.7328ZM168.284 9.39622C172.203 10.2362 175.141 14.9915 175.141 17.8516C175.141 20.7122 174.719 20.8975 173.982 22.1684L173.683 22.033L166.443 31.6009L159.203 22.0324C159.102 22.0769 159.002 22.1226 158.903 22.1684C158.167 20.8981 157.745 20.7122 157.745 17.8516C157.745 14.9915 160.682 10.2362 164.601 9.39622C163.929 9.12481 163.33 8.71036 162.845 8.18864C161.302 9.2485 159.758 8.96243 158.215 8.18864C162.556 7.03207 160.903 3.40114 162.821 1.58978C163.718 0.613166 164.84 0 166.443 0C168.046 0 169.766 0.934405 170.628 2.33425C172.056 4.15089 170.082 6.96524 174.671 8.18864C173.346 9.06384 171.865 9.31532 170.04 8.18864C169.555 8.70978 168.956 9.12481 168.284 9.39622ZM253.398 9.39622C257.317 10.2362 260.255 13.7025 260.255 17.8516C260.255 19.4238 259.833 20.8975 259.096 22.1684L258.797 22.033L251.557 31.6009L244.317 22.0324C244.217 22.0769 244.116 22.1226 244.017 22.1684C243.281 20.8981 242.859 19.4238 242.859 17.8516C242.859 13.7025 245.796 10.2362 249.715 9.39622C247.921 8.67226 246.655 6.92128 246.655 4.87661C246.655 2.1836 248.85 0 251.557 0C254.265 0 256.46 2.1836 256.46 4.87661C256.46 6.92128 255.194 8.67226 253.399 9.39622H253.398ZM251.558 10.7328L252.925 12.0927L252.223 12.7909L252.925 14.9616L251.557 19.1911L250.189 14.9616L250.891 12.7909L250.189 12.0927L251.557 10.7328L251.557 10.7316L251.558 10.7328ZM317.142 9.39622C321.061 10.2362 323.998 14.9915 323.998 17.8516C323.998 20.7122 323.577 20.8975 322.84 22.1684L322.54 22.033L315.301 31.6009L308.061 22.0324C307.961 22.0769 307.86 22.1226 307.761 22.1684C307.025 20.8981 306.603 20.7122 306.603 17.8516C306.603 14.9915 309.54 10.2362 313.459 9.39622C312.787 9.12481 312.189 8.71036 311.703 8.18864C310.16 9.2485 308.616 8.96243 307.072 8.18864C311.414 7.03207 309.761 3.40114 311.679 1.58978C312.575 0.613166 313.698 0 315.301 0C316.904 0 318.623 0.934405 319.486 2.33425C320.914 4.15089 318.939 6.96524 323.529 8.18864C322.204 9.06384 320.723 9.31532 318.898 8.18864C318.412 8.70978 317.814 9.12481 317.142 9.39622ZM347.4 9.39622C351.319 10.2362 354.256 13.7025 354.256 17.8516C354.256 19.4238 353.835 20.8975 353.097 22.1684L352.798 22.033L345.559 31.6009L338.319 22.0324C338.218 22.0769 338.118 22.1226 338.019 22.1684C337.282 20.8981 336.861 19.4238 336.861 17.8516C336.861 13.7025 339.798 10.2362 343.717 9.39622C341.922 8.67226 340.656 6.92128 340.656 4.87661C340.656 2.1836 342.851 0 345.559 0C348.267 0 350.462 2.1836 350.462 4.87661C350.462 6.92128 349.196 8.67226 347.401 9.39622H347.4ZM345.559 10.7328L346.927 12.0927L346.225 12.7909L346.927 14.9616L345.559 19.1911L344.19 14.9616L344.893 12.7909L344.19 12.0927L345.559 10.7328L345.559 10.7316V10.7328ZM411.143 9.39622C415.063 10.2362 418 14.9915 418 17.8516C418 20.7122 417.578 20.8975 416.841 22.1684L416.542 22.033L409.302 31.6009L402.062 22.0324C401.962 22.0769 401.862 22.1226 401.763 22.1684C401.026 20.8981 400.605 20.7122 400.605 17.8516C400.605 14.9915 403.541 10.2362 407.461 9.39622C406.788 9.12481 406.19 8.71036 405.705 8.18864C404.161 9.2485 402.618 8.96243 401.074 8.18864C405.415 7.03207 403.762 3.40114 405.68 1.58978C406.577 0.613166 407.699 0 409.302 0C410.905 0 412.625 0.934405 413.487 2.33425C414.916 4.15089 412.941 6.96524 417.531 8.18864C416.205 9.06384 414.724 9.31532 412.899 8.18864C412.414 8.70978 411.816 9.12481 411.143 9.39622ZM379.272 79.218C383.191 80.0581 386.128 83.5243 386.128 87.6734C386.128 89.2456 385.706 90.7193 384.97 91.9902L384.67 91.8548L377.43 101.423L370.19 91.8548C370.09 91.8987 369.99 91.9445 369.891 91.9902C369.155 90.7199 368.733 89.2456 368.733 87.6734C368.733 83.5243 371.67 80.0581 375.589 79.218C374.916 78.9466 374.318 78.5322 373.833 78.0111C372.289 79.0703 370.745 78.7843 369.202 78.0111C373.543 76.8539 371.89 73.223 373.809 71.4116C374.705 70.435 375.996 69.8218 377.43 69.8218C379.201 69.8218 380.753 70.7562 381.615 72.1561C383.043 73.9727 381.069 76.7871 385.659 78.0111C384.334 78.8857 382.852 79.1366 381.027 78.0111C380.542 78.5316 379.943 78.9466 379.272 79.218ZM285.27 79.218C289.189 80.0581 292.127 83.5243 292.127 87.6734C292.127 89.2456 291.705 90.7193 290.968 91.9902L290.668 91.8548L283.428 101.423L276.189 91.8548C276.088 91.8987 275.988 91.9445 275.889 91.9902C275.153 90.7199 274.731 89.2456 274.731 87.6734C274.731 83.5243 277.668 80.0581 281.587 79.218C279.792 78.4941 278.526 76.7431 278.526 74.6984C278.526 72.0054 280.721 69.8218 283.429 69.8218C286.137 69.8218 288.332 72.0054 288.332 74.6984C288.332 76.7431 287.066 78.4941 285.271 79.218H285.27ZM283.43 80.5546L284.797 81.9146L284.095 82.6127L284.797 84.7834L283.429 89.0129L282.061 84.7834L282.763 82.6127L282.061 81.9146L283.428 80.5546L283.429 80.5534L283.43 80.5546ZM136.412 79.218C140.331 80.0581 143.269 83.5243 143.269 87.6734C143.269 89.2456 142.847 90.7193 142.11 91.9902L141.81 91.8548L134.571 101.423L127.331 91.8548C127.23 91.8987 127.131 91.9445 127.032 91.9902C126.295 90.7199 125.873 89.2456 125.873 87.6734C125.873 83.5243 128.81 80.0581 132.73 79.218C132.057 78.9466 131.459 78.5322 130.974 78.0111C129.43 79.0703 127.886 78.7843 126.342 78.0111C130.684 76.8539 129.031 73.223 130.949 71.4116C131.845 70.435 133.136 69.8218 134.571 69.8218C136.342 69.8218 137.894 70.7562 138.755 72.1561C140.184 73.9727 138.209 76.7871 142.799 78.0111C141.474 78.8857 139.993 79.1366 138.168 78.0111C137.683 78.5316 137.084 78.9466 136.412 79.218ZM42.4106 79.218C46.3298 80.0581 49.2669 83.5243 49.2669 87.6734C49.2669 89.2456 48.8455 90.7193 48.1081 91.9902L47.8086 91.8548L40.5693 101.423L33.3293 91.8548C33.2285 91.8987 33.1289 91.9445 33.0299 91.9902C32.2931 90.7199 31.8716 89.2456 31.8716 87.6734C31.8716 83.5243 34.8088 80.0581 38.7279 79.218C36.9331 78.4941 35.667 76.7431 35.667 74.6984C35.667 72.0054 37.862 69.8218 40.5699 69.8218C43.2777 69.8218 45.4727 72.0054 45.4727 74.6984C45.4727 76.7431 44.2066 78.4941 42.4118 79.218H42.4106ZM40.5699 80.5546L41.9373 81.9146L41.2353 82.6127L41.9373 84.7834L40.5699 89.0129L39.2012 84.7834L39.9038 82.6127L39.2012 81.9146L40.5693 80.5546L40.5699 80.5534V80.5546ZM210.467 215.795C214.386 216.635 217.324 220.102 217.324 224.251C217.324 225.823 216.902 227.297 216.165 228.567L215.866 228.432L208.626 238L201.386 228.431C201.286 228.476 201.186 228.522 201.087 228.567C200.35 227.297 199.929 225.823 199.929 224.251C199.929 220.102 202.865 216.635 206.785 215.795C204.989 215.071 203.723 213.32 203.723 211.276C203.723 208.583 205.919 206.399 208.627 206.399C211.335 206.399 213.53 208.583 213.53 211.276C213.53 213.32 212.263 215.071 210.468 215.795H210.467ZM208.627 217.132L209.994 218.492L209.292 219.19L209.994 221.361L208.626 225.59L207.258 221.361L207.961 219.19L207.258 218.492L208.626 217.132V217.131L208.627 217.132ZM133.532 172.766C133.532 172.523 133.731 172.325 133.975 172.325C134.22 172.325 134.418 172.523 134.418 172.766V200.993H282.833V172.766C282.833 172.523 283.032 172.325 283.276 172.325C283.521 172.325 283.72 172.523 283.72 172.766V201.433C283.72 201.677 283.521 201.874 283.276 201.874H133.975C133.731 201.874 133.532 201.677 133.532 201.433V172.766ZM285.118 147.473C289.037 148.312 291.974 151.779 291.974 155.928C291.974 157.501 291.553 158.974 290.815 160.245L290.516 160.109L283.276 169.677L276.036 160.109C275.936 160.154 275.836 160.199 275.737 160.245C275 158.975 274.579 157.501 274.579 155.928C274.579 151.779 277.516 148.312 281.435 147.473C280.762 147.202 280.164 146.786 279.679 146.265C278.135 147.325 276.592 147.039 275.048 146.265C279.39 145.109 277.736 141.477 279.654 139.667C280.551 138.689 281.842 138.077 283.276 138.077C285.048 138.077 286.599 139.011 287.461 140.411C288.89 142.228 286.915 145.042 291.505 146.265C290.18 147.14 288.699 147.392 286.874 146.265C286.388 146.786 285.79 147.202 285.118 147.473ZM134.128 148.809L135.495 150.169L134.793 150.867L135.495 153.038L134.127 157.267L132.759 153.038L133.462 150.867L132.759 150.169L134.127 148.809V148.808L134.128 148.809Z" fill="#9D832B"/>
</svg>
