<svg width="41" height="48" viewBox="0 0 41 48" fill="none" xmlns="http://www.w3.org/2000/svg">
<rect width="41" height="48" fill="#1E1E1E"/>
<g id=" Home_RGS consultoria" clip-path="url(#clip0_1_4)">
<rect width="1920" height="4000" transform="translate(-482 -2000)" fill="white"/>
<g id="Servi&#195;&#167;os">
<rect id="Rectangle 6" opacity="0.5" x="-482" y="-198" width="1920" height="1351" fill="#C5C0A0"/>
<g id="Descri&#195;&#167;&#195;&#163;o dos servi&#195;&#167;os">
<path id="Rectangle 21" d="M-122 -37H163V111C163 112.105 162.105 113 161 113H-120C-121.105 113 -122 112.105 -122 111V-37Z" fill="#9D832B"/>
<g id="icon_cidadania italiana">
<path fill-rule="evenodd" clip-rule="evenodd" d="M22.5065 20.1759C23.0297 20.2883 23.5446 20.423 24.0508 20.5793C21.0152 22.5906 19.0144 26.037 19.0144 29.9508C19.0144 36.156 24.0449 41.1865 30.2501 41.1865C32.848 41.1865 35.2394 40.3042 37.1424 38.8238C37.0597 42.0144 36.172 45.0053 34.6747 47.5995C29.784 45.3137 24.3286 44.0343 18.5744 44.0343C12.8193 44.0343 7.36388 45.3141 2.47366 47.5995C0.900553 44.8718 0 41.7064 0 38.3313C0 29.4222 6.27234 21.9792 14.6419 20.1759C10.808 18.6206 8.10452 14.8612 8.10452 10.4704C8.10452 4.68781 12.7923 0 18.5749 0C24.3574 0 29.0448 4.68781 29.0448 10.4704C29.0448 14.8616 26.3404 18.6206 22.5065 20.1759Z" fill="white"/>
<path fill-rule="evenodd" clip-rule="evenodd" d="M26.4473 38.9541V20.9489C22.9406 22.4316 20.4793 25.9045 20.4793 29.9513C20.4793 33.998 22.9406 37.4714 26.4473 38.9541Z" fill="#11761C"/>
<path fill-rule="evenodd" clip-rule="evenodd" d="M26.4473 20.9489V38.9541C27.6161 39.4484 28.9009 39.7221 30.2496 39.7221C31.5984 39.7221 32.8832 39.4484 34.052 38.9541V20.9489C32.8832 20.4546 31.5984 20.1809 30.2496 20.1809C28.9009 20.1809 27.6161 20.4546 26.4473 20.9489Z" fill="#FEFEFE"/>
<path fill-rule="evenodd" clip-rule="evenodd" d="M34.052 20.9489V38.9541C37.5587 37.4714 40.02 33.9985 40.02 29.9517C40.02 25.9049 37.5587 22.4316 34.052 20.9489Z" fill="#DB001A"/>
</g>
</g>
</g>
<g id="Sobre a RGS">
</g>
</g>
<defs>
<clipPath id="clip0_1_4">
<rect width="1920" height="4000" fill="white" transform="translate(-482 -2000)"/>
</clipPath>
</defs>
</svg>
