<svg width="51" height="58" viewBox="0 0 51 58" fill="none" xmlns="http://www.w3.org/2000/svg">
<g filter="url(#filter0_d_182_161)">
<path fill-rule="evenodd" clip-rule="evenodd" d="M27.6425 21.1933C28.1921 21.3114 28.733 21.453 29.2648 21.6171C26.0759 23.7298 23.9742 27.35 23.9742 31.4612C23.9742 37.9793 29.2585 43.2635 35.7769 43.2635C38.506 43.2635 41.0181 42.3367 43.0172 40.7817C42.9303 44.1332 41.9977 47.2749 40.4249 50C35.2874 47.5988 29.5566 46.255 23.5119 46.255C17.4663 46.255 11.7356 47.5993 6.59852 50C4.94601 47.1347 4 43.8097 4 40.2644C4 30.9059 10.5889 23.0877 19.3809 21.1933C15.3535 19.5596 12.5136 15.6106 12.5136 10.9984C12.5136 4.92422 17.438 0 23.5124 0C29.5868 0 34.5108 4.92422 34.5108 10.9984C34.5108 15.6111 31.6704 19.5596 27.643 21.1933H27.6425Z" fill="white"/>
<path fill-rule="evenodd" clip-rule="evenodd" d="M31.7822 40.9185V22.0054C28.0985 23.5628 25.5129 27.2109 25.5129 31.4617C25.5129 35.7126 28.0985 39.3606 31.7822 40.918V40.9185Z" fill="#11761C"/>
<path fill-rule="evenodd" clip-rule="evenodd" d="M31.7822 22.0054V40.9185C33.01 41.4378 34.3596 41.7253 35.7765 41.7253C37.1933 41.7253 38.543 41.4378 39.7707 40.9185V22.0054C38.543 21.4861 37.1933 21.1986 35.7765 21.1986C34.3596 21.1986 33.01 21.4861 31.7822 22.0054Z" fill="#FEFEFE"/>
<path fill-rule="evenodd" clip-rule="evenodd" d="M39.7707 22.0054V40.9185C43.4544 39.3611 46.04 35.7131 46.04 31.4622C46.04 27.2113 43.4544 23.5633 39.7707 22.0059V22.0054Z" fill="#DB001A"/>
</g>
<defs>
<filter id="filter0_d_182_161" x="0" y="0" width="50.04" height="58" filterUnits="userSpaceOnUse" color-interpolation-filters="sRGB">
<feFlood flood-opacity="0" result="BackgroundImageFix"/>
<feColorMatrix in="SourceAlpha" type="matrix" values="0 0 0 0 0 0 0 0 0 0 0 0 0 0 0 0 0 0 127 0" result="hardAlpha"/>
<feOffset dy="4"/>
<feGaussianBlur stdDeviation="2"/>
<feComposite in2="hardAlpha" operator="out"/>
<feColorMatrix type="matrix" values="0 0 0 0 0 0 0 0 0 0 0 0 0 0 0 0 0 0 0.25 0"/>
<feBlend mode="normal" in2="BackgroundImageFix" result="effect1_dropShadow_182_161"/>
<feBlend mode="normal" in="SourceGraphic" in2="effect1_dropShadow_182_161" result="shape"/>
</filter>
</defs>
</svg>
