<svg width="26" height="26" viewBox="0 0 26 26" fill="none" xmlns="http://www.w3.org/2000/svg">
<path fill-rule="evenodd" clip-rule="evenodd" d="M1.07317 6.60284H3.56367V14.2919C3.56367 14.7836 3.79846 15.222 4.15825 15.4941V19.0076C4.15825 19.8613 4.83867 20.5597 5.66848 20.5597H20.3317C21.1618 20.5597 21.842 19.8604 21.842 19.0076V15.4941C22.202 15.222 22.4365 14.7836 22.4365 14.2919V6.60284H24.927C25.5171 6.60284 26 7.09889 26 7.70537V24.8973C26 25.5037 25.5171 26 24.927 26H1.07295C0.482861 26 0 25.5037 0 24.8973V7.70537C0 7.09889 0.482861 6.60284 1.07295 6.60284H1.07317ZM4.68306 18.5454V1.55216C4.68306 0.698428 5.36262 0 6.19329 0H19.8074C20.638 0 21.3176 0.700188 21.3176 1.55216V18.5454C21.3176 19.3974 20.6363 20.0976 19.8074 20.0976H6.19329C5.36434 20.0976 4.68306 19.3991 4.68306 18.5454ZM6.77225 16.3379H14.1519C14.2962 16.3379 14.4143 16.4596 14.4143 16.6076C14.4143 16.7559 14.296 16.8773 14.1519 16.8773H6.77225C6.62799 16.8773 6.50985 16.7559 6.50985 16.6076C6.50985 16.4594 6.62799 16.3379 6.77225 16.3379ZM6.77225 1.95582H12.2265C12.371 1.95582 12.4889 2.07725 12.4889 2.22551C12.4889 2.37378 12.3707 2.4952 12.2265 2.4952H6.77225C6.62799 2.4952 6.50985 2.374 6.50985 2.22551C6.50985 2.07725 6.62799 1.95582 6.77225 1.95582ZM6.77225 4.06958H19.2284C19.3726 4.06958 19.4908 4.19101 19.4908 4.33927C19.4908 4.48754 19.3726 4.60896 19.2284 4.60896H6.77225C6.62799 4.60896 6.50985 4.48776 6.50985 4.33927C6.50985 4.19101 6.62799 4.06958 6.77225 4.06958ZM6.77225 5.60304H19.2284C19.3726 5.60304 19.4908 5.72469 19.4908 5.87295C19.4908 6.02122 19.3726 6.14265 19.2284 6.14265H6.77225C6.62799 6.14265 6.50985 6.02122 6.50985 5.87295C6.50985 5.72447 6.62799 5.60304 6.77225 5.60304ZM6.77225 7.13672H19.2284C19.3726 7.13672 19.4908 7.25815 19.4908 7.40642V7.40664C19.4908 7.5549 19.3726 7.67633 19.2284 7.67633H6.77225C6.62799 7.67633 6.50985 7.55512 6.50985 7.40664V7.40642C6.50985 7.25815 6.62799 7.13672 6.77225 7.13672ZM6.77225 8.67019H19.2284C19.3726 8.67019 19.4908 8.79161 19.4908 8.93988V8.9401C19.4908 9.08836 19.3726 9.20979 19.2284 9.20979H6.77225C6.62799 9.20979 6.50985 9.08836 6.50985 8.9401V8.93988C6.50985 8.79161 6.62799 8.67019 6.77225 8.67019ZM6.77225 10.2036H19.2284C19.3726 10.2036 19.4908 10.3253 19.4908 10.4733C19.4908 10.6216 19.3726 10.7433 19.2284 10.7433H6.77225C6.62799 10.7433 6.50985 10.6218 6.50985 10.4733C6.50985 10.3249 6.62799 10.2036 6.77225 10.2036ZM6.77225 11.7373H19.2284C19.3726 11.7373 19.4908 11.8588 19.4908 12.007C19.4908 12.1553 19.3726 12.2767 19.2284 12.2767H6.77225C6.62799 12.2767 6.50985 12.1553 6.50985 12.007C6.50985 11.8585 6.62799 11.7373 6.77225 11.7373ZM6.77225 13.2708H19.2284C19.3726 13.2708 19.4908 13.3922 19.4908 13.5405C19.4908 13.6887 19.3726 13.8104 19.2284 13.8104H6.77225C6.62799 13.8104 6.50985 13.689 6.50985 13.5405C6.50985 13.3922 6.62799 13.2708 6.77225 13.2708ZM6.77225 14.8043H19.2284C19.3726 14.8043 19.4908 14.9259 19.4908 15.0742C19.4908 15.2222 19.3726 15.3439 19.2284 15.3439H6.77225C6.62799 15.3439 6.50985 15.2224 6.50985 15.0742C6.50985 14.9257 6.62799 14.8043 6.77225 14.8043Z" fill="#9D832B"/>
</svg>
