<svg width="41" height="48" viewBox="0 0 41 48" fill="none" xmlns="http://www.w3.org/2000/svg">
<path fill-rule="evenodd" clip-rule="evenodd" d="M22.5071 20.1756C23.0303 20.2882 23.5453 20.4233 24.0515 20.5791C21.0159 22.5908 19.0151 26.0369 19.0151 29.951C19.0151 36.1562 24.046 41.1871 30.2506 41.1871C32.8489 41.1871 35.2405 40.3048 37.1429 38.8244C37.0604 42.0148 36.1726 45.0055 34.6753 47.6C29.7849 45.3144 24.3292 44.0347 18.575 44.0347C12.8198 44.0347 7.36462 45.3144 2.47364 47.6C0.900351 44.8722 0 41.707 0 38.3319C0 29.423 6.27239 21.9796 14.6418 20.1762C10.808 18.6209 8.10426 14.8615 8.10426 10.4702C8.10426 4.68762 12.7919 0 18.5745 0C24.357 0 29.0441 4.68762 29.0441 10.4702C29.0441 14.8615 26.3403 18.6204 22.5066 20.1762L22.5071 20.1756Z" fill="white"/>
<path fill-rule="evenodd" clip-rule="evenodd" d="M30.2506 39.7215V20.1806C24.8551 20.1806 20.4801 24.5555 20.4801 29.951C20.4801 35.3466 24.8551 39.7215 30.2506 39.7215Z" fill="#0E601A"/>
<path fill-rule="evenodd" clip-rule="evenodd" d="M30.2506 20.1811V39.7221C35.6462 39.7221 40.0211 35.3471 40.0211 29.9516C40.0211 24.556 35.6462 20.1811 30.2506 20.1811Z" fill="#DC001A"/>
<path fill-rule="evenodd" clip-rule="evenodd" d="M27.5375 26.5175H32.9637V30.6721C32.9637 32.1639 31.743 33.3846 30.2501 33.3846C28.7582 33.3846 27.5375 32.1639 27.5375 30.6721V26.5175Z" fill="#FEFEFE"/>
<path fill-rule="evenodd" clip-rule="evenodd" d="M29.6919 27.2921H30.8421V28.1733C30.8421 28.4898 30.5841 28.7478 30.2676 28.7478H30.267C29.9505 28.7478 29.6925 28.4898 29.6925 28.1733V27.2921H29.6919ZM31.3407 29.2229H32.4908V30.1041C32.4908 30.4206 32.2328 30.6786 31.9163 30.6786H31.9157C31.5992 30.6786 31.3407 30.4206 31.3407 30.1041V29.2229ZM31.6184 30.0177C31.6834 30.0177 31.737 30.0713 31.737 30.1363C31.737 30.2014 31.6834 30.2544 31.6184 30.2544C31.5533 30.2544 31.5003 30.2014 31.5003 30.1363C31.5003 30.0713 31.5533 30.0177 31.6184 30.0177ZM31.6184 29.4213C31.6834 29.4213 31.737 29.4749 31.737 29.5405C31.737 29.6055 31.6834 29.6586 31.6184 29.6586C31.5533 29.6586 31.5003 29.6055 31.5003 29.5405C31.5003 29.4754 31.5533 29.4213 31.6184 29.4213ZM31.9059 29.7203C31.971 29.7203 32.024 29.7734 32.024 29.8384C32.024 29.9035 31.971 29.957 31.9059 29.957C31.8408 29.957 31.7878 29.9035 31.7878 29.8384C31.7878 29.7734 31.8408 29.7203 31.9059 29.7203ZM32.1934 29.4213C32.2585 29.4213 32.3115 29.4749 32.3115 29.5405C32.3115 29.6055 32.2585 29.6586 32.1934 29.6586C32.1284 29.6586 32.0748 29.6055 32.0748 29.5405C32.0748 29.4754 32.1284 29.4213 32.1934 29.4213ZM32.1934 30.0177C32.2585 30.0177 32.3115 30.0713 32.3115 30.1363C32.3115 30.2014 32.2585 30.2544 32.1934 30.2544C32.1284 30.2544 32.0748 30.2014 32.0748 30.1363C32.0748 30.0713 32.1284 30.0177 32.1934 30.0177ZM29.6761 29.2229H30.8262V30.1041C30.8262 30.4206 30.5677 30.6786 30.2517 30.6786H30.2506C29.9341 30.6786 29.6761 30.4206 29.6761 30.1041V29.2229ZM29.9538 30.0177C30.0188 30.0177 30.0724 30.0713 30.0724 30.1363C30.0724 30.2014 30.0188 30.2544 29.9538 30.2544C29.8887 30.2544 29.8357 30.2014 29.8357 30.1363C29.8357 30.0713 29.8887 30.0177 29.9538 30.0177ZM29.9538 29.4213C30.0188 29.4213 30.0724 29.4749 30.0724 29.5405C30.0724 29.6055 30.0188 29.6586 29.9538 29.6586C29.8887 29.6586 29.8357 29.6055 29.8357 29.5405C29.8357 29.4754 29.8887 29.4213 29.9538 29.4213ZM30.2413 29.7203C30.3064 29.7203 30.3594 29.7734 30.3594 29.8384C30.3594 29.9035 30.3064 29.957 30.2413 29.957C30.1763 29.957 30.1232 29.9035 30.1232 29.8384C30.1232 29.7734 30.1763 29.7203 30.2413 29.7203ZM30.5289 29.4213C30.5939 29.4213 30.6469 29.4749 30.6469 29.5405C30.6469 29.6055 30.5939 29.6586 30.5289 29.6586C30.4638 29.6586 30.4102 29.6055 30.4102 29.5405C30.4102 29.4754 30.4638 29.4213 30.5289 29.4213ZM30.5289 30.0177C30.5939 30.0177 30.6469 30.0713 30.6469 30.1363C30.6469 30.2014 30.5939 30.2544 30.5289 30.2544C30.4638 30.2544 30.4102 30.2014 30.4102 30.1363C30.4102 30.0713 30.4638 30.0177 30.5289 30.0177ZM28.0115 29.2229H29.1617V30.1041C29.1617 30.4206 28.9036 30.6786 28.5871 30.6786H28.5866C28.2701 30.6786 28.012 30.4206 28.012 30.1041V29.2229H28.0115ZM28.2886 30.0177C28.3537 30.0177 28.4073 30.0713 28.4073 30.1363C28.4073 30.2014 28.3537 30.2544 28.2886 30.2544C28.2236 30.2544 28.1706 30.2014 28.1706 30.1363C28.1706 30.0713 28.2236 30.0177 28.2886 30.0177ZM28.2886 29.4213C28.3537 29.4213 28.4073 29.4749 28.4073 29.5405C28.4073 29.6055 28.3537 29.6586 28.2886 29.6586C28.2236 29.6586 28.1706 29.6055 28.1706 29.5405C28.1706 29.4754 28.2236 29.4213 28.2886 29.4213ZM28.5762 29.7203C28.6412 29.7203 28.6943 29.7734 28.6943 29.8384C28.6943 29.9035 28.6412 29.957 28.5762 29.957C28.5111 29.957 28.4581 29.9035 28.4581 29.8384C28.4581 29.7734 28.5111 29.7203 28.5762 29.7203ZM28.8637 29.4213C28.9288 29.4213 28.9818 29.4749 28.9818 29.5405C28.9818 29.6055 28.9288 29.6586 28.8637 29.6586C28.7987 29.6586 28.7451 29.6055 28.7451 29.5405C28.7451 29.4754 28.7987 29.4213 28.8637 29.4213ZM28.8637 30.0177C28.9288 30.0177 28.9818 30.0713 28.9818 30.1363C28.9818 30.2014 28.9288 30.2544 28.8637 30.2544C28.7987 30.2544 28.7451 30.2014 28.7451 30.1363C28.7451 30.0713 28.7987 30.0177 28.8637 30.0177ZM29.7083 31.1542H30.8585V32.0355C30.8585 32.352 30.6005 32.61 30.284 32.61H30.2834C29.9669 32.61 29.7089 32.3514 29.7089 32.0355V31.1542H29.7083ZM29.9855 31.9485C30.0505 31.9485 30.1041 32.0021 30.1041 32.0677C30.1041 32.1328 30.0505 32.1858 29.9855 32.1858C29.9204 32.1858 29.8674 32.1328 29.8674 32.0677C29.8674 32.0027 29.9204 31.9485 29.9855 31.9485ZM29.9855 31.3527C30.0505 31.3527 30.1041 31.4062 30.1041 31.4713C30.1041 31.5364 30.0505 31.5894 29.9855 31.5894C29.9204 31.5894 29.8674 31.5364 29.8674 31.4713C29.8674 31.4062 29.9204 31.3527 29.9855 31.3527ZM30.273 31.6517C30.3381 31.6517 30.3911 31.7047 30.3911 31.7698C30.3911 31.8348 30.3381 31.8884 30.273 31.8884C30.208 31.8884 30.1549 31.8348 30.1549 31.7698C30.1549 31.7047 30.208 31.6517 30.273 31.6517ZM30.5606 31.3527C30.6256 31.3527 30.6786 31.4062 30.6786 31.4713C30.6786 31.5364 30.6256 31.5894 30.5606 31.5894C30.4955 31.5894 30.4419 31.5364 30.4419 31.4713C30.4419 31.4062 30.4955 31.3527 30.5606 31.3527ZM30.5606 31.9485C30.6256 31.9485 30.6786 32.0021 30.6786 32.0677C30.6786 32.1328 30.6256 32.1858 30.5606 32.1858C30.4955 32.1858 30.4419 32.1328 30.4419 32.0677C30.4419 32.0027 30.4955 31.9485 30.5606 31.9485ZM29.9707 28.0864C30.0358 28.0864 30.0893 28.1399 30.0893 28.205C30.0893 28.27 30.0358 28.3231 29.9707 28.3231C29.9057 28.3231 29.8526 28.27 29.8526 28.205C29.8526 28.1399 29.9057 28.0864 29.9707 28.0864ZM29.9707 27.49C30.0358 27.49 30.0893 27.5435 30.0893 27.6086C30.0893 27.6736 30.0358 27.7267 29.9707 27.7267C29.9057 27.7267 29.8526 27.6736 29.8526 27.6086C29.8526 27.5435 29.9057 27.49 29.9707 27.49ZM30.2583 27.789C30.3233 27.789 30.3763 27.842 30.3763 27.9071C30.3763 27.9721 30.3233 28.0257 30.2583 28.0257C30.1932 28.0257 30.1402 27.9721 30.1402 27.9071C30.1402 27.842 30.1932 27.789 30.2583 27.789ZM30.5458 27.49C30.6109 27.49 30.6639 27.5435 30.6639 27.6086C30.6639 27.6736 30.6109 27.7267 30.5458 27.7267C30.4808 27.7267 30.4272 27.6736 30.4272 27.6086C30.4272 27.5435 30.4808 27.49 30.5458 27.49ZM30.5458 28.0864C30.6109 28.0864 30.6639 28.1399 30.6639 28.205C30.6639 28.27 30.6109 28.3231 30.5458 28.3231C30.4808 28.3231 30.4272 28.27 30.4272 28.205C30.4272 28.1399 30.4808 28.0864 30.5458 28.0864Z" fill="#2C4797"/>
</svg>
