<svg width="79" height="50" viewBox="0 0 79 50" fill="none" xmlns="http://www.w3.org/2000/svg">
<path id="icon_justi&#195;&#167;a" fill-rule="evenodd" clip-rule="evenodd" d="M43.4067 37.2788H67.3004C69.291 37.2788 70.9203 38.9072 70.9203 40.8987V40.9162H39.786V40.8987C39.786 38.9072 41.4152 37.2788 43.4067 37.2788ZM54.7976 4.15918L61.5436 24.4585C61.7944 25.2144 61.7286 26.001 61.4191 26.6745L46.0707 31.7745C45.4192 31.4202 44.8957 30.8292 44.644 30.0742L37.8971 9.77485C37.6463 9.01984 37.713 8.23238 38.0234 7.55892L53.37 2.458C54.0216 2.81227 54.5459 3.4033 54.7967 4.15831L54.7976 4.15918ZM16.328 24.099L18.7912 31.5141C13.9402 33.4669 9.08833 35.4189 4.23732 37.3718C3.58491 37.6611 2.81674 37.7304 2.59927 37.0754C1.74956 34.5175 0.898962 31.9587 0.0492463 29.4007C-0.148056 28.8062 0.262333 28.3388 1.01471 28.1573L16.3271 24.0999L16.328 24.099ZM38.71 16.6603L41.1741 24.0736L20.0794 31.0844L17.6153 23.6711L38.71 16.6603ZM60.8447 28.1529L60.8535 28.1775C61.2569 29.3937 60.593 30.7196 59.3768 31.123L50.371 34.1167C49.1548 34.5201 47.8289 33.8554 47.4255 32.64L47.4167 32.6155L60.8447 28.1529ZM38.5978 6.08135L38.589 6.05679C38.1847 4.84053 38.8494 3.51466 40.0648 3.11129L49.0706 0.118429C50.2868 -0.285822 51.6118 0.378868 52.017 1.59425L52.0249 1.6188L38.5969 6.08135H38.5978ZM36.1319 42.7252H74.5577C76.5579 42.7252 78.1951 44.3615 78.1951 46.3626V50H32.5121V46.346C32.5121 44.3554 34.1414 42.7261 36.1319 42.7261V42.7252Z" fill="white"/>
</svg>
