<svg width="28" height="20" viewBox="0 0 28 20" fill="none" xmlns="http://www.w3.org/2000/svg">
<path fill-rule="evenodd" clip-rule="evenodd" d="M21.9002 8.47719C25.3872 9.2356 28 12.3625 28 16.1061C28 17.5242 27.625 18.8537 26.9695 20C24.932 19.0393 22.6595 18.5021 20.2623 18.5021C17.8646 18.5021 15.592 19.0393 13.5545 20C12.8992 18.8537 12.5237 17.5242 12.5237 16.1061C12.5237 12.3627 15.1373 9.2356 18.6238 8.47719C17.027 7.8241 15.9 6.24453 15.9 4.39928C15.9 1.96979 17.8532 0 20.2623 0C22.6711 0 24.624 1.96995 24.624 4.39928C24.624 6.24453 23.4977 7.8241 21.9002 8.47719ZM9.37623 8.47719C10.9769 8.82518 12.3934 9.67263 13.4574 10.85C12.2033 12.237 11.4384 14.0813 11.4384 16.1061C11.4384 17.1645 11.6476 18.1741 12.026 19.0945C10.6622 18.7086 9.22424 18.5021 7.73791 18.5021C5.34063 18.5021 3.06796 19.0393 1.03053 20C0.375329 18.8537 0 17.5242 0 16.1061C0 12.3627 2.61313 9.2356 6.10008 8.47719C4.50265 7.8241 3.37634 6.24453 3.37634 4.39928C3.37634 1.96979 5.32922 0 7.73807 0C10.1469 0 12.1 1.96995 12.1 4.39928C12.1 6.24453 10.9733 7.8241 9.37623 8.47719Z" fill="#9D832B"/>
</svg>
