<svg width="23" height="30" viewBox="0 0 23 30" fill="none" xmlns="http://www.w3.org/2000/svg">
<path fill-rule="evenodd" clip-rule="evenodd" d="M5.80044 2.8451C6.4363 2.8451 6.95641 3.3652 6.95641 4.00107V7.33949C7.74854 9.31142 9.23415 10.3329 12.151 9.39339V8.71876C12.151 8.34228 12.4591 8.03417 12.8356 8.03417H12.8365C13.213 8.03417 13.5207 8.34228 13.5207 8.71876V10.1752C13.5207 10.5516 13.213 10.8598 12.8365 10.8598H12.8356C12.4591 10.8598 12.151 10.5516 12.151 10.1752V10.1551C9.99681 10.8863 8.05948 10.4477 6.95466 8.87517C6.91858 9.47859 6.41315 9.96182 5.80057 9.96182C5.16511 9.96182 4.64501 9.44171 4.64501 8.80585V8.77718C4.4855 8.86063 4.30446 8.90801 4.11306 8.90801C3.47719 8.90801 2.95709 8.38791 2.95709 7.75245V5.05447C2.95709 4.41901 3.47719 3.89904 4.11306 3.89904C4.3046 3.89904 4.4855 3.94642 4.64501 4.02987V4.0012C4.64501 3.36534 5.16511 2.84523 5.80057 2.84523L5.80044 2.8451ZM3.25146 30H19.4702C19.8308 30 20.1261 29.7051 20.1261 29.3441V19.5138C20.1261 19.1528 19.8293 18.8579 19.4702 18.8579H3.25146C2.89221 18.8579 2.59555 19.1546 2.59555 19.5138V29.3441C2.59555 29.7033 2.89046 30 3.25146 30ZM13.7656 12.34C18.8844 13.443 22.7211 17.9953 22.7211 23.4443C22.7211 25.5087 22.1704 27.4446 21.2077 29.113L21.0162 29.0245V19.0579C21.0162 18.4571 20.5261 17.9676 19.9259 17.9676H2.79557C2.19524 17.9676 1.70528 18.4575 1.70528 19.0579V29.024L1.51294 29.1128C0.55066 27.4446 0 25.5087 0 23.4442C0 17.9952 3.83631 13.4429 8.95512 12.3398C7.97683 11.9428 7.11901 11.3111 6.45124 10.5148C6.69326 10.4222 6.91064 10.2796 7.09114 10.0995C8.27955 11.1397 9.93638 11.4602 11.7204 11.0308C11.9779 11.3655 12.3828 11.5815 12.8363 11.5815C13.6112 11.5815 14.2421 10.9502 14.2421 10.1753V8.71889C14.2421 7.94358 13.6108 7.3127 12.8353 7.3127C12.0604 7.3127 11.4291 7.94399 11.4291 8.71889V8.85148C9.44669 9.35745 8.30903 8.76991 7.62888 7.08159V4.0012C7.62888 3.22266 7.13852 2.5557 6.45111 2.29229C7.62579 0.89107 9.38895 0 11.3603 0C14.8972 0 17.7638 2.86704 17.7638 6.40386C17.7638 9.08959 16.1101 11.3887 13.7653 12.3401L13.7656 12.34Z" fill="#9D832B"/>
</svg>
