<svg width="51" height="58" viewBox="0 0 51 58" fill="none" xmlns="http://www.w3.org/2000/svg">
<g filter="url(#filter0_d_188_233)">
<path fill-rule="evenodd" clip-rule="evenodd" d="M27.642 21.1929C28.1915 21.3112 28.7324 21.453 29.2641 21.6167C26.0755 23.7298 23.9738 27.3497 23.9738 31.4612C23.9738 37.9792 29.2584 43.2638 35.7758 43.2638C38.5051 43.2638 41.0174 42.337 43.0157 40.782C42.929 44.1332 41.9964 47.2747 40.4236 50C35.2866 47.5992 29.5559 46.2549 23.5116 46.2549C17.4661 46.2549 11.7359 47.5992 6.59836 50C4.94575 47.1346 4 43.8099 4 40.2646C4 30.9065 10.5886 23.0878 19.38 21.1935C15.353 19.5598 12.5129 15.6109 12.5129 10.9981C12.5129 4.92397 17.4368 0 23.511 0C29.5851 0 34.5085 4.92397 34.5085 10.9981C34.5085 15.6109 31.6684 19.5592 27.6414 21.1935L27.642 21.1929Z" fill="white"/>
<path fill-rule="evenodd" clip-rule="evenodd" d="M35.7758 41.7243V21.1981C30.1083 21.1981 25.5127 25.7936 25.5127 31.4612C25.5127 37.1288 30.1083 41.7243 35.7758 41.7243Z" fill="#0E601A"/>
<path fill-rule="evenodd" clip-rule="evenodd" d="M35.7758 21.1986V41.7249C41.4434 41.7249 46.039 37.1293 46.039 31.4617C46.039 25.7942 41.4434 21.1986 35.7758 21.1986Z" fill="#DC001A"/>
<path fill-rule="evenodd" clip-rule="evenodd" d="M32.926 27.8545H38.6257V32.2186C38.6257 33.7856 37.3435 35.0679 35.7753 35.0679C34.2082 35.0679 32.926 33.7856 32.926 32.2186V27.8545Z" fill="#FEFEFE"/>
<path fill-rule="evenodd" clip-rule="evenodd" d="M35.189 28.6681H36.3972V29.5938C36.3972 29.9263 36.1261 30.1973 35.7936 30.1973H35.7931C35.4606 30.1973 35.1896 29.9263 35.1896 29.5938V28.6681H35.189ZM36.9209 30.6963H38.129V31.622C38.129 31.9544 37.858 32.2255 37.5255 32.2255H37.5249C37.1925 32.2255 36.9209 31.9544 36.9209 31.622V30.6963ZM37.2126 31.5312C37.2809 31.5312 37.3372 31.5875 37.3372 31.6558C37.3372 31.7242 37.2809 31.7799 37.2126 31.7799C37.1442 31.7799 37.0885 31.7242 37.0885 31.6558C37.0885 31.5875 37.1442 31.5312 37.2126 31.5312ZM37.2126 30.9047C37.2809 30.9047 37.3372 30.961 37.3372 31.0299C37.3372 31.0983 37.2809 31.154 37.2126 31.154C37.1442 31.154 37.0885 31.0983 37.0885 31.0299C37.0885 30.9616 37.1442 30.9047 37.2126 30.9047ZM37.5146 31.2188C37.5829 31.2188 37.6386 31.2745 37.6386 31.3429C37.6386 31.4112 37.5829 31.4675 37.5146 31.4675C37.4463 31.4675 37.3906 31.4112 37.3906 31.3429C37.3906 31.2745 37.4463 31.2188 37.5146 31.2188ZM37.8166 30.9047C37.885 30.9047 37.9407 30.961 37.9407 31.0299C37.9407 31.0983 37.885 31.154 37.8166 31.154C37.7483 31.154 37.692 31.0983 37.692 31.0299C37.692 30.9616 37.7483 30.9047 37.8166 30.9047ZM37.8166 31.5312C37.885 31.5312 37.9407 31.5875 37.9407 31.6558C37.9407 31.7242 37.885 31.7799 37.8166 31.7799C37.7483 31.7799 37.692 31.7242 37.692 31.6558C37.692 31.5875 37.7483 31.5312 37.8166 31.5312ZM35.1723 30.6963H36.3805V31.622C36.3805 31.9544 36.1089 32.2255 35.777 32.2255H35.7758C35.4434 32.2255 35.1723 31.9544 35.1723 31.622V30.6963ZM35.464 31.5312C35.5324 31.5312 35.5887 31.5875 35.5887 31.6558C35.5887 31.7242 35.5324 31.7799 35.464 31.7799C35.3957 31.7799 35.34 31.7242 35.34 31.6558C35.34 31.5875 35.3957 31.5312 35.464 31.5312ZM35.464 30.9047C35.5324 30.9047 35.5887 30.961 35.5887 31.0299C35.5887 31.0983 35.5324 31.154 35.464 31.154C35.3957 31.154 35.34 31.0983 35.34 31.0299C35.34 30.9616 35.3957 30.9047 35.464 30.9047ZM35.7661 31.2188C35.8344 31.2188 35.8901 31.2745 35.8901 31.3429C35.8901 31.4112 35.8344 31.4675 35.7661 31.4675C35.6978 31.4675 35.6421 31.4112 35.6421 31.3429C35.6421 31.2745 35.6978 31.2188 35.7661 31.2188ZM36.0681 30.9047C36.1365 30.9047 36.1922 30.961 36.1922 31.0299C36.1922 31.0983 36.1365 31.154 36.0681 31.154C35.9998 31.154 35.9435 31.0983 35.9435 31.0299C35.9435 30.9616 35.9998 30.9047 36.0681 30.9047ZM36.0681 31.5312C36.1365 31.5312 36.1922 31.5875 36.1922 31.6558C36.1922 31.7242 36.1365 31.7799 36.0681 31.7799C35.9998 31.7799 35.9435 31.7242 35.9435 31.6558C35.9435 31.5875 35.9998 31.5312 36.0681 31.5312ZM33.4238 30.6963H34.632V31.622C34.632 31.9544 34.361 32.2255 34.0285 32.2255H34.0279C33.6954 32.2255 33.4244 31.9544 33.4244 31.622V30.6963H33.4238ZM33.715 31.5312C33.7833 31.5312 33.8396 31.5875 33.8396 31.6558C33.8396 31.7242 33.7833 31.7799 33.715 31.7799C33.6466 31.7799 33.5909 31.7242 33.5909 31.6558C33.5909 31.5875 33.6466 31.5312 33.715 31.5312ZM33.715 30.9047C33.7833 30.9047 33.8396 30.961 33.8396 31.0299C33.8396 31.0983 33.7833 31.154 33.715 31.154C33.6466 31.154 33.5909 31.0983 33.5909 31.0299C33.5909 30.9616 33.6466 30.9047 33.715 30.9047ZM34.017 31.2188C34.0853 31.2188 34.141 31.2745 34.141 31.3429C34.141 31.4112 34.0853 31.4675 34.017 31.4675C33.9487 31.4675 33.893 31.4112 33.893 31.3429C33.893 31.2745 33.9487 31.2188 34.017 31.2188ZM34.319 30.9047C34.3874 30.9047 34.4431 30.961 34.4431 31.0299C34.4431 31.0983 34.3874 31.154 34.319 31.154C34.2507 31.154 34.1944 31.0983 34.1944 31.0299C34.1944 30.9616 34.2507 30.9047 34.319 30.9047ZM34.319 31.5312C34.3874 31.5312 34.4431 31.5875 34.4431 31.6558C34.4431 31.7242 34.3874 31.7799 34.319 31.7799C34.2507 31.7799 34.1944 31.7242 34.1944 31.6558C34.1944 31.5875 34.2507 31.5312 34.319 31.5312ZM35.2062 32.725H36.4144V33.6507C36.4144 33.9832 36.1434 34.2542 35.8109 34.2542H35.8103C35.4778 34.2542 35.2068 33.9826 35.2068 33.6507V32.725H35.2062ZM35.4974 33.5594C35.5657 33.5594 35.622 33.6157 35.622 33.6846C35.622 33.7529 35.5657 33.8086 35.4974 33.8086C35.429 33.8086 35.3733 33.7529 35.3733 33.6846C35.3733 33.6162 35.429 33.5594 35.4974 33.5594ZM35.4974 32.9335C35.5657 32.9335 35.622 32.9898 35.622 33.0581C35.622 33.1264 35.5657 33.1821 35.4974 33.1821C35.429 33.1821 35.3733 33.1264 35.3733 33.0581C35.3733 32.9898 35.429 32.9335 35.4974 32.9335ZM35.7994 33.2476C35.8677 33.2476 35.9234 33.3033 35.9234 33.3716C35.9234 33.4399 35.8677 33.4962 35.7994 33.4962C35.7311 33.4962 35.6754 33.4399 35.6754 33.3716C35.6754 33.3033 35.7311 33.2476 35.7994 33.2476ZM36.1014 32.9335C36.1698 32.9335 36.2255 32.9898 36.2255 33.0581C36.2255 33.1264 36.1698 33.1821 36.1014 33.1821C36.0331 33.1821 35.9768 33.1264 35.9768 33.0581C35.9768 32.9898 36.0331 32.9335 36.1014 32.9335ZM36.1014 33.5594C36.1698 33.5594 36.2255 33.6157 36.2255 33.6846C36.2255 33.7529 36.1698 33.8086 36.1014 33.8086C36.0331 33.8086 35.9768 33.7529 35.9768 33.6846C35.9768 33.6162 36.0331 33.5594 36.1014 33.5594ZM35.4818 29.5025C35.5502 29.5025 35.6065 29.5588 35.6065 29.6271C35.6065 29.6954 35.5502 29.7511 35.4818 29.7511C35.4135 29.7511 35.3578 29.6954 35.3578 29.6271C35.3578 29.5588 35.4135 29.5025 35.4818 29.5025ZM35.4818 28.876C35.5502 28.876 35.6065 28.9323 35.6065 29.0006C35.6065 29.069 35.5502 29.1247 35.4818 29.1247C35.4135 29.1247 35.3578 29.069 35.3578 29.0006C35.3578 28.9323 35.4135 28.876 35.4818 28.876ZM35.7839 29.1901C35.8522 29.1901 35.9079 29.2458 35.9079 29.3141C35.9079 29.3825 35.8522 29.4388 35.7839 29.4388C35.7156 29.4388 35.6599 29.3825 35.6599 29.3141C35.6599 29.2458 35.7156 29.1901 35.7839 29.1901ZM36.0859 28.876C36.1543 28.876 36.21 28.9323 36.21 29.0006C36.21 29.069 36.1543 29.1247 36.0859 29.1247C36.0176 29.1247 35.9613 29.069 35.9613 29.0006C35.9613 28.9323 36.0176 28.876 36.0859 28.876ZM36.0859 29.5025C36.1543 29.5025 36.21 29.5588 36.21 29.6271C36.21 29.6954 36.1543 29.7511 36.0859 29.7511C36.0176 29.7511 35.9613 29.6954 35.9613 29.6271C35.9613 29.5588 36.0176 29.5025 36.0859 29.5025Z" fill="#2C4797"/>
</g>
<defs>
<filter id="filter0_d_188_233" x="0" y="0" width="50.0391" height="58" filterUnits="userSpaceOnUse" color-interpolation-filters="sRGB">
<feFlood flood-opacity="0" result="BackgroundImageFix"/>
<feColorMatrix in="SourceAlpha" type="matrix" values="0 0 0 0 0 0 0 0 0 0 0 0 0 0 0 0 0 0 127 0" result="hardAlpha"/>
<feOffset dy="4"/>
<feGaussianBlur stdDeviation="2"/>
<feComposite in2="hardAlpha" operator="out"/>
<feColorMatrix type="matrix" values="0 0 0 0 0 0 0 0 0 0 0 0 0 0 0 0 0 0 0.25 0"/>
<feBlend mode="normal" in2="BackgroundImageFix" result="effect1_dropShadow_188_233"/>
<feBlend mode="normal" in="SourceGraphic" in2="effect1_dropShadow_188_233" result="shape"/>
</filter>
</defs>
</svg>
