<svg width="22" height="26" viewBox="0 0 22 26" fill="none" xmlns="http://www.w3.org/2000/svg">
<g id="icon_cidadania portuguesa">
<path fill-rule="evenodd" clip-rule="evenodd" d="M12.2938 11.0203C12.5796 11.0818 12.8609 11.1556 13.1374 11.2407C11.4792 12.3395 10.3864 14.2219 10.3864 16.3598C10.3864 19.7492 13.1344 22.4972 16.5234 22.4972C17.9427 22.4972 19.249 22.0152 20.2881 21.2066C20.2431 22.9492 19.7581 24.5829 18.9403 26C16.269 24.7516 13.289 24.0526 10.146 24.0526C7.00239 24.0526 4.02269 24.7516 1.35115 26C0.491789 24.51 0 22.7811 0 20.9376C0 16.0714 3.4261 12.0057 7.99761 11.0206C5.90355 10.1711 4.42669 8.11765 4.42669 5.71902C4.42669 2.56047 6.98716 0 10.1457 0C13.3043 0 15.8644 2.56047 15.8644 5.71902C15.8644 8.11765 14.3876 10.1708 12.2935 11.0206L12.2938 11.0203Z" fill="#9D832B"/>
<path fill-rule="evenodd" clip-rule="evenodd" d="M16.5234 21.6966V11.023C13.5763 11.023 11.1866 13.4127 11.1866 16.3598C11.1866 19.307 13.5763 21.6966 16.5234 21.6966Z" fill="#0E601A"/>
<path fill-rule="evenodd" clip-rule="evenodd" d="M16.5234 11.0233V21.6969C19.4706 21.6969 21.8603 19.3073 21.8603 16.3601C21.8603 13.413 19.4706 11.0233 16.5234 11.0233Z" fill="#DC001A"/>
<path fill-rule="evenodd" clip-rule="evenodd" d="M15.0415 14.4843H18.0054V16.7537C18.0054 17.5685 17.3386 18.2353 16.5231 18.2353C15.7083 18.2353 15.0415 17.5685 15.0415 16.7537V14.4843Z" fill="#FEFEFE"/>
<path fill-rule="evenodd" clip-rule="evenodd" d="M16.2183 14.9074H16.8465V15.3888C16.8465 15.5617 16.7056 15.7026 16.5327 15.7026H16.5324C16.3595 15.7026 16.2186 15.5617 16.2186 15.3888V14.9074H16.2183ZM17.1188 15.9621H17.7471V16.4434C17.7471 16.6163 17.6062 16.7572 17.4333 16.7572H17.433C17.2601 16.7572 17.1188 16.6163 17.1188 16.4434V15.9621ZM17.2705 16.3962C17.3061 16.3962 17.3353 16.4255 17.3353 16.461C17.3353 16.4966 17.3061 16.5255 17.2705 16.5255C17.235 16.5255 17.206 16.4966 17.206 16.461C17.206 16.4255 17.235 16.3962 17.2705 16.3962ZM17.2705 16.0705C17.3061 16.0705 17.3353 16.0997 17.3353 16.1356C17.3353 16.1711 17.3061 16.2001 17.2705 16.2001C17.235 16.2001 17.206 16.1711 17.206 16.1356C17.206 16.1 17.235 16.0705 17.2705 16.0705ZM17.4276 16.2338C17.4631 16.2338 17.4921 16.2628 17.4921 16.2983C17.4921 16.3338 17.4631 16.3631 17.4276 16.3631C17.3921 16.3631 17.3631 16.3338 17.3631 16.2983C17.3631 16.2628 17.3921 16.2338 17.4276 16.2338ZM17.5847 16.0705C17.6202 16.0705 17.6491 16.0997 17.6491 16.1356C17.6491 16.1711 17.6202 16.2001 17.5847 16.2001C17.5491 16.2001 17.5199 16.1711 17.5199 16.1356C17.5199 16.1 17.5491 16.0705 17.5847 16.0705ZM17.5847 16.3962C17.6202 16.3962 17.6491 16.4255 17.6491 16.461C17.6491 16.4966 17.6202 16.5255 17.5847 16.5255C17.5491 16.5255 17.5199 16.4966 17.5199 16.461C17.5199 16.4255 17.5491 16.3962 17.5847 16.3962ZM16.2096 15.9621H16.8379V16.4434C16.8379 16.6163 16.6966 16.7572 16.524 16.7572H16.5234C16.3506 16.7572 16.2096 16.6163 16.2096 16.4434V15.9621ZM16.3613 16.3962C16.3968 16.3962 16.4261 16.4255 16.4261 16.461C16.4261 16.4966 16.3968 16.5255 16.3613 16.5255C16.3258 16.5255 16.2968 16.4966 16.2968 16.461C16.2968 16.4255 16.3258 16.3962 16.3613 16.3962ZM16.3613 16.0705C16.3968 16.0705 16.4261 16.0997 16.4261 16.1356C16.4261 16.1711 16.3968 16.2001 16.3613 16.2001C16.3258 16.2001 16.2968 16.1711 16.2968 16.1356C16.2968 16.1 16.3258 16.0705 16.3613 16.0705ZM16.5184 16.2338C16.5539 16.2338 16.5829 16.2628 16.5829 16.2983C16.5829 16.3338 16.5539 16.3631 16.5184 16.3631C16.4828 16.3631 16.4539 16.3338 16.4539 16.2983C16.4539 16.2628 16.4828 16.2338 16.5184 16.2338ZM16.6754 16.0705C16.711 16.0705 16.7399 16.0997 16.7399 16.1356C16.7399 16.1711 16.711 16.2001 16.6754 16.2001C16.6399 16.2001 16.6106 16.1711 16.6106 16.1356C16.6106 16.1 16.6399 16.0705 16.6754 16.0705ZM16.6754 16.3962C16.711 16.3962 16.7399 16.4255 16.7399 16.461C16.7399 16.4966 16.711 16.5255 16.6754 16.5255C16.6399 16.5255 16.6106 16.4966 16.6106 16.461C16.6106 16.4255 16.6399 16.3962 16.6754 16.3962ZM15.3004 15.9621H15.9286V16.4434C15.9286 16.6163 15.7877 16.7572 15.6148 16.7572H15.6145C15.4416 16.7572 15.3007 16.6163 15.3007 16.4434V15.9621H15.3004ZM15.4518 16.3962C15.4873 16.3962 15.5166 16.4255 15.5166 16.461C15.5166 16.4966 15.4873 16.5255 15.4518 16.5255C15.4162 16.5255 15.3873 16.4966 15.3873 16.461C15.3873 16.4255 15.4162 16.3962 15.4518 16.3962ZM15.4518 16.0705C15.4873 16.0705 15.5166 16.0997 15.5166 16.1356C15.5166 16.1711 15.4873 16.2001 15.4518 16.2001C15.4162 16.2001 15.3873 16.1711 15.3873 16.1356C15.3873 16.1 15.4162 16.0705 15.4518 16.0705ZM15.6088 16.2338C15.6444 16.2338 15.6733 16.2628 15.6733 16.2983C15.6733 16.3338 15.6444 16.3631 15.6088 16.3631C15.5733 16.3631 15.5443 16.3338 15.5443 16.2983C15.5443 16.2628 15.5733 16.2338 15.6088 16.2338ZM15.7659 16.0705C15.8014 16.0705 15.8304 16.0997 15.8304 16.1356C15.8304 16.1711 15.8014 16.2001 15.7659 16.2001C15.7304 16.2001 15.7011 16.1711 15.7011 16.1356C15.7011 16.1 15.7304 16.0705 15.7659 16.0705ZM15.7659 16.3962C15.8014 16.3962 15.8304 16.4255 15.8304 16.461C15.8304 16.4966 15.8014 16.5255 15.7659 16.5255C15.7304 16.5255 15.7011 16.4966 15.7011 16.461C15.7011 16.4255 15.7304 16.3962 15.7659 16.3962ZM16.2272 17.017H16.8555V17.4984C16.8555 17.6712 16.7145 17.8122 16.5417 17.8122H16.5414C16.3685 17.8122 16.2275 17.6709 16.2275 17.4984V17.017H16.2272ZM16.3786 17.4509C16.4142 17.4509 16.4434 17.4801 16.4434 17.516C16.4434 17.5515 16.4142 17.5805 16.3786 17.5805C16.3431 17.5805 16.3141 17.5515 16.3141 17.516C16.3141 17.4804 16.3431 17.4509 16.3786 17.4509ZM16.3786 17.1254C16.4142 17.1254 16.4434 17.1547 16.4434 17.1902C16.4434 17.2257 16.4142 17.2547 16.3786 17.2547C16.3431 17.2547 16.3141 17.2257 16.3141 17.1902C16.3141 17.1547 16.3431 17.1254 16.3786 17.1254ZM16.5357 17.2887C16.5712 17.2887 16.6002 17.3177 16.6002 17.3532C16.6002 17.3888 16.5712 17.418 16.5357 17.418C16.5002 17.418 16.4712 17.3888 16.4712 17.3532C16.4712 17.3177 16.5002 17.2887 16.5357 17.2887ZM16.6927 17.1254C16.7283 17.1254 16.7572 17.1547 16.7572 17.1902C16.7572 17.2257 16.7283 17.2547 16.6927 17.2547C16.6572 17.2547 16.6279 17.2257 16.6279 17.1902C16.6279 17.1547 16.6572 17.1254 16.6927 17.1254ZM16.6927 17.4509C16.7283 17.4509 16.7572 17.4801 16.7572 17.516C16.7572 17.5515 16.7283 17.5805 16.6927 17.5805C16.6572 17.5805 16.6279 17.5515 16.6279 17.516C16.6279 17.4804 16.6572 17.4509 16.6927 17.4509ZM16.3706 15.3413C16.4061 15.3413 16.4354 15.3706 16.4354 15.4061C16.4354 15.4416 16.4061 15.4706 16.3706 15.4706C16.335 15.4706 16.3061 15.4416 16.3061 15.4061C16.3061 15.3706 16.335 15.3413 16.3706 15.3413ZM16.3706 15.0155C16.4061 15.0155 16.4354 15.0448 16.4354 15.0803C16.4354 15.1159 16.4061 15.1448 16.3706 15.1448C16.335 15.1448 16.3061 15.1159 16.3061 15.0803C16.3061 15.0448 16.335 15.0155 16.3706 15.0155ZM16.5276 15.1789C16.5632 15.1789 16.5921 15.2078 16.5921 15.2434C16.5921 15.2789 16.5632 15.3082 16.5276 15.3082C16.4921 15.3082 16.4631 15.2789 16.4631 15.2434C16.4631 15.2078 16.4921 15.1789 16.5276 15.1789ZM16.6847 15.0155C16.7202 15.0155 16.7492 15.0448 16.7492 15.0803C16.7492 15.1159 16.7202 15.1448 16.6847 15.1448C16.6491 15.1448 16.6199 15.1159 16.6199 15.0803C16.6199 15.0448 16.6491 15.0155 16.6847 15.0155ZM16.6847 15.3413C16.7202 15.3413 16.7492 15.3706 16.7492 15.4061C16.7492 15.4416 16.7202 15.4706 16.6847 15.4706C16.6491 15.4706 16.6199 15.4416 16.6199 15.4061C16.6199 15.3706 16.6491 15.3413 16.6847 15.3413Z" fill="#2C4797"/>
</g>
</svg>
