<svg width="28" height="30" viewBox="0 0 28 30" fill="none" xmlns="http://www.w3.org/2000/svg">
<g id=" Home_RGS consultoria" clip-path="url(#clip0_1_4)">
<g id="Servi&#195;&#167;os">
<g id="Link icon_home">
<path id="Link icon_home_2" fill-rule="evenodd" clip-rule="evenodd" d="M0.713024 13.0636L10.3185 3.45811L13.7766 0L17.2347 3.45811L26.8402 13.0636C27.7909 14.0144 27.7909 15.5707 26.8402 16.5214L26.8399 16.5218C26.112 17.2497 25.029 17.4202 24.1348 17.0335V30H19.3853V17.7781H8.58829V30H3.83887V16.7998C2.88666 17.461 1.55999 17.3685 0.713403 16.5219L0.713024 16.5215C-0.237675 15.5708 -0.237675 14.0145 0.713024 13.0637V13.0636ZM9.6743 19.1551H18.2182V29.9999H9.6743V19.1551ZM19.0033 12.1429L13.7766 6.91613L8.54998 12.1429H19.0032H19.0033Z" fill="#9D832B"/>
</g>
</g>
<g id="Sobre a RGS">
</g>
</g>
<defs>
<clipPath id="clip0_1_4">
<rect width="1920" height="4000" fill="white" transform="translate(-1530 -3042)"/>
</clipPath>
</defs>
</svg>
