<svg width="27" height="19" viewBox="0 0 27 19" fill="none" xmlns="http://www.w3.org/2000/svg">
<path fill-rule="evenodd" clip-rule="evenodd" d="M12.8268 3.28335C12.8737 2.6147 14.1271 2.60631 14.1734 3.28335L14.6377 3.04398C14.7003 2.96948 14.7628 2.90916 14.8649 2.82819C14.9916 2.72772 15.1182 2.62719 15.1133 2.4788C14.6678 1.45338 15.0974 0.886899 15.8896 0.553542C16.6132 0.249074 17.6413 0.154776 18.5481 0.0716484C18.7266 0.0553156 18.7549 0.0531585 18.8312 0.0459166L19.316 0L18.9242 0.281817C18.4902 0.593911 18.1688 1.14992 17.8477 1.70585C17.1774 2.86586 16.507 4.02556 14.8104 3.31108L14.1882 3.69151C14.2251 4.76647 14.2621 6.23572 14.299 7.82747L14.9057 7.51461C14.9832 7.42254 15.0603 7.34804 15.1866 7.24789C15.343 7.1237 15.4994 6.99951 15.4934 6.81623C14.943 5.54928 15.4739 4.84936 16.4526 4.4375C17.3466 4.06131 18.6169 3.9449 19.7373 3.84213C19.9577 3.82194 19.9927 3.81932 20.0869 3.81031L20.686 3.75361L20.2018 4.10183C19.6656 4.48742 19.2686 5.1744 18.8718 5.8613C18.0437 7.29458 17.2153 8.72747 15.1189 7.84473L14.3107 8.33879C14.3463 9.89149 14.3817 11.5308 14.4173 13.0148L15.4845 12.4647C15.5938 12.3348 15.7027 12.2295 15.8808 12.0882C16.1017 11.9129 16.3225 11.7375 16.3141 11.4787C15.537 9.69018 16.2866 8.70197 17.6682 8.12054C18.9304 7.58949 20.7236 7.42501 22.3055 7.27994C22.6167 7.25136 22.6661 7.24766 22.7992 7.23502L23.6448 7.1549L22.9614 7.6465C22.2043 8.19103 21.644 9.16083 21.0837 10.1305C19.9145 12.1541 18.7451 14.1768 15.7855 12.9308L14.4353 13.7562C14.4644 14.9264 14.4936 15.9644 14.5228 16.736C14.5228 16.7424 14.5224 16.7486 14.5222 16.7549C20.6653 16.2496 25.4897 11.2329 25.4897 5.11778C25.4897 4.09382 25.354 3.10099 25.1 2.15469C25.434 1.77873 25.7487 1.38597 26.0435 0.978578C26.6603 2.48489 27 4.12818 27 5.8489C27 13.1121 20.9559 19 13.5001 19C6.04421 19 0 13.112 0 5.8489C0 4.12826 0.339748 2.48489 0.95653 0.978578C1.25136 1.3859 1.56604 1.77865 1.90009 2.15469C1.64607 3.10099 1.51036 4.09382 1.51036 5.11778C1.51036 11.2329 6.33477 16.2495 12.4778 16.7549C12.4776 16.7486 12.4771 16.7425 12.4771 16.736C12.5064 15.9645 12.5355 14.9264 12.5647 13.7562L11.2145 12.9308C8.25494 14.1768 7.08552 12.1541 5.91633 10.1305C5.35601 9.16083 4.7957 8.19103 4.03862 7.6465L3.35509 7.1549L4.20082 7.23502C4.33392 7.24758 4.38327 7.25136 4.69447 7.27994C6.2764 7.42493 8.06965 7.58942 9.33184 8.12054C10.7134 8.70197 11.463 9.69018 10.6859 11.4787C10.6774 11.7375 10.8983 11.9128 11.1192 12.0882C11.2973 12.2295 11.4062 12.3349 11.5155 12.4647L12.5827 13.0148C12.6183 11.5307 12.6537 9.89149 12.6893 8.33879L11.8811 7.84473C9.78468 8.72747 8.95635 7.29465 8.12817 5.8613C7.73132 5.17432 7.3344 4.48742 6.7982 4.10183L6.31405 3.75361L6.91311 3.81031C7.00738 3.81932 7.04234 3.82194 7.26275 3.84213C8.38322 3.9449 9.65348 4.06131 10.5474 4.4375C11.5261 4.84936 12.057 5.54928 11.5066 6.81623C11.5005 6.99951 11.657 7.1237 11.8134 7.24789C11.9397 7.34797 12.0168 7.42254 12.0943 7.51461L12.701 7.82747C12.7379 6.23572 12.7748 4.76647 12.8118 3.69151L12.1896 3.31108C10.493 4.02548 9.82248 2.86586 9.15224 1.70585C8.83108 1.14992 8.50991 0.593834 8.07582 0.281817L7.68403 0L8.16882 0.0459166C8.24514 0.0531585 8.27345 0.0553156 8.45178 0.0716484C9.35873 0.154853 10.3867 0.249074 11.1104 0.553542C11.9024 0.886899 12.3322 1.45338 11.8867 2.4788C11.8818 2.62719 12.0085 2.72772 12.1351 2.82819C12.2372 2.90916 12.2997 2.96956 12.3624 3.04398L12.8266 3.28335H12.8268Z" fill="#9D832B"/>
</svg>
