<svg width="57" height="50" viewBox="0 0 57 50" fill="none" xmlns="http://www.w3.org/2000/svg">
<path id="icon_fam&#195;&#173;lia" fill-rule="evenodd" clip-rule="evenodd" d="M44.6637 23.6781C51.6965 25.1939 56.9675 31.4484 56.9675 38.9331C56.9675 41.77 56.2113 44.4298 54.889 46.7208C52.4375 45.5761 49.8181 44.731 47.0764 44.2355L47.0779 43.9989C47.0779 38.7368 44.0972 34.044 39.5952 31.7266C41.003 30.1832 41.8314 28.1412 41.8314 25.9602C41.8314 21.2382 38.002 17.4081 33.2801 17.4081C33.1087 17.4081 32.9378 17.4139 32.7683 17.424C32.6343 16.812 32.5624 16.1759 32.5624 15.5223C32.5624 10.6632 36.501 6.72386 41.3609 6.72386C46.22 6.72386 50.1585 10.6632 50.1585 15.5223C50.1585 19.2126 47.8858 22.3713 44.6641 23.6781H44.6637ZM35.8249 32.2442C41.2447 33.4126 45.3056 38.2313 45.3056 43.9993C45.3056 46.1854 44.7228 48.2347 43.7043 50C40.5375 48.5195 37.0057 47.6923 33.2797 47.6923C29.5537 47.6923 26.0216 48.5199 22.8559 50C21.8362 48.2347 21.2538 46.1854 21.2538 43.9993C21.2538 38.2313 25.3155 33.4126 30.7338 32.2442C28.252 31.2378 26.5007 28.8037 26.5007 25.9602C26.5007 22.2159 29.5358 19.1807 33.2801 19.1807C37.0236 19.1807 40.0591 22.2159 40.0591 25.9602C40.0591 28.8037 38.3082 31.2378 35.8253 32.2442H35.8249ZM19.5017 43.2443C19.0797 43.2295 18.6565 43.2221 18.2322 43.2221C12.5832 43.2221 7.22784 44.4776 2.42819 46.7208C0.883226 44.0443 0 40.9373 0 37.624C0 28.8799 6.15616 21.5743 14.3714 19.8036C10.608 18.2769 7.95409 14.587 7.95409 10.2774C7.95409 4.60109 12.5552 0 18.2322 0C23.9069 0 28.508 4.60109 28.508 10.2774C28.508 14.587 25.8541 18.2769 22.0908 19.8036C23.5207 20.1114 24.8869 20.5862 26.1692 21.2087C25.2592 22.5675 24.7284 24.2011 24.7284 25.9602C24.7284 28.1404 25.556 30.1832 26.9646 31.7266C22.6771 33.9333 19.7714 38.2904 19.5017 43.2443Z" fill="white"/>
</svg>
