<svg width="27" height="24" viewBox="0 0 27 24" fill="none" xmlns="http://www.w3.org/2000/svg">
<path fill-rule="evenodd" clip-rule="evenodd" d="M1.83843 3.11501C-1.0364 6.71334 -0.478579 11.984 3.0844 14.8874C6.64738 17.7907 11.8663 17.2274 14.7411 13.629C17.6159 10.0307 17.0581 4.76002 13.4951 1.85667C9.93213 -1.04669 4.71325 -0.483328 1.83843 3.11501ZM14.7771 15.0125C18.7314 18.4115 21.2015 20.601 25.1558 24C26.5897 23.9122 27.1149 23.0838 26.9794 21.7174L16.0876 13.3721C15.9065 13.6681 15.705 13.9558 15.4832 14.2337C15.2612 14.5115 15.0253 14.7712 14.7771 15.0125ZM3.08623 4.13186C0.767393 7.03413 1.21735 11.2853 4.09111 13.6272C6.96502 15.969 11.1744 15.5146 13.4933 12.6123C15.8121 9.70989 15.3622 5.45871 12.4884 3.11686C9.61449 0.775009 5.40507 1.22943 3.08623 4.13186Z" fill="#9D832B"/>
</svg>
